# Blender v2.79 (sub 0) OBJ File: 'People.blend'
# www.blender.org
mtllib People.mtl
o Cylinder
v -3.353958 0.697769 -0.800916
v 3.359438 0.697769 -0.800916
v -3.353958 0.650778 -0.798466
v 3.359438 0.650777 -0.798466
v -3.353958 0.605592 -0.791209
v 3.359438 0.605592 -0.791209
v -3.353958 0.563948 -0.779424
v 3.359438 0.563948 -0.779424
v -3.353958 0.527448 -0.763565
v 3.359438 0.527447 -0.763565
v -3.353958 0.497492 -0.744241
v 3.359438 0.497492 -0.744241
v -3.353958 0.475233 -0.722193
v 3.359438 0.475233 -0.722193
v -3.353958 0.461526 -0.698271
v 3.359438 0.461526 -0.698271
v -3.353958 0.456898 -0.673392
v 3.359438 0.456898 -0.673392
v -3.353958 0.461526 -0.648513
v 3.359438 0.461526 -0.648513
v -3.353958 0.475233 -0.624591
v 3.359438 0.475233 -0.624591
v -3.353958 0.497492 -0.602544
v 3.359438 0.497492 -0.602544
v -3.353958 0.527448 -0.583219
v 3.359438 0.527447 -0.583219
v -3.353958 0.563948 -0.567360
v 3.359438 0.563948 -0.567360
v -3.353958 0.605592 -0.555575
v 3.359438 0.605592 -0.555575
v -3.353958 0.650778 -0.548319
v 3.359438 0.650777 -0.548319
v -3.353958 0.697769 -0.545868
v 3.359438 0.697769 -0.545868
v -3.353958 0.744761 -0.548319
v 3.359438 0.744761 -0.548319
v -3.353958 0.789947 -0.555575
v 3.359438 0.789947 -0.555575
v -3.353958 0.831590 -0.567360
v 3.359438 0.831590 -0.567360
v -3.353958 0.868091 -0.583219
v 3.359438 0.868091 -0.583219
v -3.353958 0.898047 -0.602544
v 3.359438 0.898046 -0.602544
v -3.353958 0.920305 -0.624591
v 3.359438 0.920305 -0.624591
v -3.353958 0.934012 -0.648513
v 3.359438 0.934012 -0.648513
v -3.353958 0.938641 -0.673392
v 3.359438 0.938640 -0.673392
v -3.353958 0.934012 -0.698271
v 3.359438 0.934012 -0.698271
v -3.353958 0.920305 -0.722193
v 3.359438 0.920305 -0.722193
v -3.353958 0.898046 -0.744241
v 3.359438 0.898046 -0.744241
v -3.353958 0.868091 -0.763565
v 3.359438 0.868091 -0.763565
v -3.353958 0.831590 -0.779424
v 3.359438 0.831590 -0.779424
v -3.353958 0.789946 -0.791209
v 3.359438 0.789946 -0.791209
v -3.353958 0.744761 -0.798466
v 3.359438 0.744760 -0.798466
vn 0.0000 -0.0521 -0.9986
vn -0.0000 -0.1586 -0.9873
vn -0.0000 -0.2723 -0.9622
vn -0.0000 -0.3985 -0.9172
vn -0.0000 -0.5421 -0.8403
vn -0.0000 -0.7037 -0.7105
vn -0.0000 -0.8677 -0.4971
vn -0.0000 -0.9831 -0.1829
vn -0.0000 -0.9831 0.1829
vn -0.0000 -0.8677 0.4971
vn -0.0000 -0.7037 0.7105
vn -0.0000 -0.5421 0.8403
vn -0.0000 -0.3985 0.9172
vn -0.0000 -0.2723 0.9622
vn -0.0000 -0.1586 0.9873
vn -0.0000 -0.0521 0.9986
vn 0.0000 0.0521 0.9986
vn 0.0000 0.1586 0.9873
vn 0.0000 0.2723 0.9622
vn 0.0000 0.3985 0.9172
vn 0.0000 0.5421 0.8403
vn 0.0000 0.7037 0.7105
vn 0.0000 0.8677 0.4971
vn 0.0000 0.9831 0.1829
vn 0.0000 0.9831 -0.1829
vn 0.0000 0.8677 -0.4972
vn 0.0000 0.7037 -0.7105
vn 0.0000 0.5421 -0.8403
vn 0.0000 0.3985 -0.9172
vn 0.0000 0.2723 -0.9622
vn 1.0000 0.0000 0.0000
vn 0.0000 0.1586 -0.9873
vn -0.0000 0.0521 -0.9986
vn -1.0000 -0.0000 0.0000
usemtl Material.001
s off
f 1//1 2//1 4//1 3//1
f 3//2 4//2 6//2 5//2
f 5//3 6//3 8//3 7//3
f 7//4 8//4 10//4 9//4
f 9//5 10//5 12//5 11//5
f 11//6 12//6 14//6 13//6
f 13//7 14//7 16//7 15//7
f 15//8 16//8 18//8 17//8
f 17//9 18//9 20//9 19//9
f 19//10 20//10 22//10 21//10
f 21//11 22//11 24//11 23//11
f 23//12 24//12 26//12 25//12
f 25//13 26//13 28//13 27//13
f 27//14 28//14 30//14 29//14
f 29//15 30//15 32//15 31//15
f 31//16 32//16 34//16 33//16
f 33//17 34//17 36//17 35//17
f 35//18 36//18 38//18 37//18
f 37//19 38//19 40//19 39//19
f 39//20 40//20 42//20 41//20
f 41//21 42//21 44//21 43//21
f 43//22 44//22 46//22 45//22
f 45//23 46//23 48//23 47//23
f 47//24 48//24 50//24 49//24
f 49//25 50//25 52//25 51//25
f 51//26 52//26 54//26 53//26
f 53//27 54//27 56//27 55//27
f 55//28 56//28 58//28 57//28
f 57//29 58//29 60//29 59//29
f 59//30 60//30 62//30 61//30
f 4//31 2//31 64//31 62//31 60//31 58//31 56//31 54//31 52//31 50//31 48//31 46//31 44//31 42//31 40//31 38//31 36//31 34//31 32//31 30//31 28//31 26//31 24//31 22//31 20//31 18//31 16//31 14//31 12//31 10//31 8//31 6//31
f 61//32 62//32 64//32 63//32
f 63//33 64//33 2//33 1//33
f 1//34 3//34 5//34 7//34 9//34 11//34 13//34 15//34 17//34 19//34 21//34 23//34 25//34 27//34 29//34 31//34 33//34 35//34 37//34 39//34 41//34 43//34 45//34 47//34 49//34 51//34 53//34 55//34 57//34 59//34 61//34 63//34
o Plane
v -3.377747 0.541114 -0.673392
v 3.383227 0.541114 -0.673392
v -3.377747 9.031560 -0.673392
v 3.383227 9.031560 -0.673392
vt 0.000000 1.000000
vt 0.000000 0.000000
vt 1.000000 0.000000
vt 1.000000 1.000000
vn 0.0000 -0.0000 1.0000
usemtl People
s off
f 65/1/35 66/2/35 68/3/35 67/4/35
o Cylinder.001
v -3.353958 8.944946 -0.800916
v 3.359438 8.944946 -0.800916
v -3.353958 8.897955 -0.798466
v 3.359438 8.897955 -0.798466
v -3.353958 8.852769 -0.791209
v 3.359438 8.852769 -0.791209
v -3.353958 8.811126 -0.779424
v 3.359438 8.811125 -0.779424
v -3.353958 8.774625 -0.763565
v 3.359438 8.774625 -0.763565
v -3.353958 8.744669 -0.744241
v 3.359438 8.744669 -0.744241
v -3.353958 8.722410 -0.722193
v 3.359438 8.722410 -0.722193
v -3.353958 8.708703 -0.698271
v 3.359438 8.708703 -0.698271
v -3.353958 8.704075 -0.673392
v 3.359438 8.704075 -0.673392
v -3.353958 8.708703 -0.648513
v 3.359438 8.708703 -0.648513
v -3.353958 8.722410 -0.624591
v 3.359438 8.722410 -0.624591
v -3.353958 8.744669 -0.602544
v 3.359438 8.744669 -0.602544
v -3.353958 8.774625 -0.583219
v 3.359438 8.774625 -0.583219
v -3.353958 8.811126 -0.567360
v 3.359438 8.811125 -0.567360
v -3.353958 8.852769 -0.555575
v 3.359438 8.852769 -0.555575
v -3.353958 8.897955 -0.548319
v 3.359438 8.897955 -0.548319
v -3.353958 8.944946 -0.545868
v 3.359438 8.944946 -0.545868
v -3.353958 8.991939 -0.548319
v 3.359438 8.991938 -0.548319
v -3.353958 9.037124 -0.555575
v 3.359438 9.037124 -0.555575
v -3.353958 9.078768 -0.567360
v 3.359438 9.078767 -0.567360
v -3.353958 9.115269 -0.583219
v 3.359438 9.115268 -0.583219
v -3.353958 9.145224 -0.602544
v 3.359438 9.145224 -0.602544
v -3.353958 9.167482 -0.624591
v 3.359438 9.167482 -0.624591
v -3.353958 9.181190 -0.648513
v 3.359438 9.181190 -0.648513
v -3.353958 9.185818 -0.673392
v 3.359438 9.185818 -0.673392
v -3.353958 9.181190 -0.698271
v 3.359438 9.181190 -0.698271
v -3.353958 9.167482 -0.722193
v 3.359438 9.167482 -0.722193
v -3.353958 9.145224 -0.744241
v 3.359438 9.145224 -0.744241
v -3.353958 9.115268 -0.763565
v 3.359438 9.115268 -0.763565
v -3.353958 9.078767 -0.779424
v 3.359438 9.078767 -0.779424
v -3.353958 9.037124 -0.791209
v 3.359438 9.037124 -0.791209
v -3.353958 8.991938 -0.798466
v 3.359438 8.991938 -0.798466
vn 0.0000 -0.0521 -0.9986
vn 0.0000 -0.1586 -0.9873
vn -0.0000 -0.2723 -0.9622
vn -0.0000 -0.3985 -0.9172
vn 0.0000 -0.5421 -0.8403
vn 0.0000 -0.7037 -0.7105
vn 0.0000 -0.8677 -0.4972
vn 0.0000 -0.9831 -0.1829
vn 0.0000 -0.9831 0.1829
vn 0.0000 -0.8677 0.4972
vn 0.0000 -0.7037 0.7105
vn 0.0000 -0.5421 0.8403
vn -0.0000 -0.3985 0.9172
vn -0.0000 -0.2723 0.9622
vn 0.0000 -0.1586 0.9873
vn 0.0000 -0.0521 0.9986
vn 0.0000 0.0521 0.9986
vn 0.0000 0.1586 0.9873
vn 0.0000 0.2723 0.9622
vn 0.0000 0.3985 0.9172
vn 0.0000 0.5421 0.8403
vn 0.0000 0.7037 0.7105
vn 0.0000 0.8677 0.4972
vn 0.0000 0.9831 0.1829
vn 0.0000 0.9831 -0.1829
vn 0.0000 0.8677 -0.4972
vn 0.0000 0.7037 -0.7105
vn 0.0000 0.5421 -0.8403
vn 0.0000 0.3985 -0.9172
vn 0.0000 0.2723 -0.9622
vn 1.0000 0.0000 0.0000
vn 0.0000 0.1586 -0.9873
vn 0.0000 0.0521 -0.9986
vn -1.0000 -0.0000 0.0000
usemtl None
s off
f 69//36 70//36 72//36 71//36
f 71//37 72//37 74//37 73//37
f 73//38 74//38 76//38 75//38
f 75//39 76//39 78//39 77//39
f 77//40 78//40 80//40 79//40
f 79//41 80//41 82//41 81//41
f 81//42 82//42 84//42 83//42
f 83//43 84//43 86//43 85//43
f 85//44 86//44 88//44 87//44
f 87//45 88//45 90//45 89//45
f 89//46 90//46 92//46 91//46
f 91//47 92//47 94//47 93//47
f 93//48 94//48 96//48 95//48
f 95//49 96//49 98//49 97//49
f 97//50 98//50 100//50 99//50
f 99//51 100//51 102//51 101//51
f 101//52 102//52 104//52 103//52
f 103//53 104//53 106//53 105//53
f 105//54 106//54 108//54 107//54
f 107//55 108//55 110//55 109//55
f 109//56 110//56 112//56 111//56
f 111//57 112//57 114//57 113//57
f 113//58 114//58 116//58 115//58
f 115//59 116//59 118//59 117//59
f 117//60 118//60 120//60 119//60
f 119//61 120//61 122//61 121//61
f 121//62 122//62 124//62 123//62
f 123//63 124//63 126//63 125//63
f 125//64 126//64 128//64 127//64
f 127//65 128//65 130//65 129//65
f 72//66 70//66 132//66 130//66 128//66 126//66 124//66 122//66 120//66 118//66 116//66 114//66 112//66 110//66 108//66 106//66 104//66 102//66 100//66 98//66 96//66 94//66 92//66 90//66 88//66 86//66 84//66 82//66 80//66 78//66 76//66 74//66
f 129//67 130//67 132//67 131//67
f 131//68 132//68 70//68 69//68
f 69//69 71//69 73//69 75//69 77//69 79//69 81//69 83//69 85//69 87//69 89//69 91//69 93//69 95//69 97//69 99//69 101//69 103//69 105//69 107//69 109//69 111//69 113//69 115//69 117//69 119//69 121//69 123//69 125//69 127//69 129//69 131//69
o Cylinder.002
v 3.308693 9.095659 -0.712426
v 3.462196 0.674091 -0.712426
v 3.302956 9.095555 -0.711676
v 3.456459 0.673986 -0.711676
v 3.297439 9.095455 -0.709455
v 3.450942 0.673886 -0.709455
v 3.292355 9.095362 -0.705848
v 3.445858 0.673793 -0.705848
v 3.287899 9.095281 -0.700993
v 3.441402 0.673712 -0.700993
v 3.284241 9.095214 -0.695078
v 3.437745 0.673645 -0.695078
v 3.281524 9.095164 -0.688330
v 3.435027 0.673595 -0.688330
v 3.279850 9.095134 -0.681007
v 3.433353 0.673565 -0.681007
v 3.279285 9.095123 -0.673392
v 3.432788 0.673555 -0.673392
v 3.279850 9.095134 -0.665777
v 3.433353 0.673565 -0.665777
v 3.281524 9.095164 -0.658454
v 3.435027 0.673595 -0.658454
v 3.284241 9.095214 -0.651706
v 3.437745 0.673645 -0.651706
v 3.287899 9.095281 -0.645791
v 3.441402 0.673712 -0.645791
v 3.292355 9.095362 -0.640936
v 3.445858 0.673793 -0.640936
v 3.297439 9.095455 -0.637329
v 3.450942 0.673886 -0.637329
v 3.302956 9.095555 -0.635108
v 3.456459 0.673986 -0.635108
v 3.308693 9.095659 -0.634358
v 3.462196 0.674091 -0.634358
v 3.314430 9.095764 -0.635108
v 3.467933 0.674195 -0.635108
v 3.319947 9.095865 -0.637329
v 3.473450 0.674296 -0.637329
v 3.325031 9.095958 -0.640936
v 3.478534 0.674389 -0.640936
v 3.329488 9.096039 -0.645791
v 3.482991 0.674470 -0.645791
v 3.333145 9.096106 -0.651706
v 3.486648 0.674537 -0.651706
v 3.335862 9.096155 -0.658454
v 3.489365 0.674586 -0.658454
v 3.337536 9.096186 -0.665777
v 3.491039 0.674617 -0.665777
v 3.338101 9.096195 -0.673392
v 3.491604 0.674627 -0.673392
v 3.337536 9.096186 -0.681007
v 3.491039 0.674617 -0.681007
v 3.335862 9.096155 -0.688330
v 3.489365 0.674586 -0.688330
v 3.333145 9.096106 -0.695078
v 3.486648 0.674537 -0.695078
v 3.329488 9.096039 -0.700993
v 3.482991 0.674470 -0.700993
v 3.325031 9.095958 -0.705848
v 3.478534 0.674389 -0.705848
v 3.319947 9.095865 -0.709455
v 3.473450 0.674296 -0.709455
v 3.314430 9.095764 -0.711676
v 3.467933 0.674195 -0.711676
vn -0.1296 -0.0024 -0.9916
vn -0.3734 -0.0068 -0.9276
vn -0.5785 -0.0105 -0.8156
vn -0.7365 -0.0134 -0.6763
vn -0.8504 -0.0155 -0.5260
vn -0.9274 -0.0169 -0.3736
vn -0.9747 -0.0178 -0.2228
vn -0.9971 -0.0182 -0.0740
vn -0.9971 -0.0182 0.0740
vn -0.9747 -0.0178 0.2228
vn -0.9274 -0.0169 0.3736
vn -0.8504 -0.0155 0.5260
vn -0.7365 -0.0134 0.6763
vn -0.5785 -0.0105 0.8156
vn -0.3734 -0.0068 0.9276
vn -0.1296 -0.0024 0.9916
vn 0.1296 0.0024 0.9916
vn 0.3734 0.0068 0.9276
vn 0.5785 0.0105 0.8156
vn 0.7365 0.0134 0.6763
vn 0.8504 0.0155 0.5260
vn 0.9274 0.0169 0.3736
vn 0.9747 0.0178 0.2228
vn 0.9971 0.0182 0.0740
vn 0.9971 0.0182 -0.0740
vn 0.9747 0.0178 -0.2228
vn 0.9274 0.0169 -0.3736
vn 0.8504 0.0155 -0.5260
vn 0.7365 0.0134 -0.6763
vn 0.5785 0.0105 -0.8156
vn 0.0182 -0.9998 0.0000
vn 0.3734 0.0068 -0.9277
vn 0.1296 0.0024 -0.9916
vn -0.0182 0.9998 0.0000
usemtl None
s off
f 133//70 134//70 136//70 135//70
f 135//71 136//71 138//71 137//71
f 137//72 138//72 140//72 139//72
f 139//73 140//73 142//73 141//73
f 141//74 142//74 144//74 143//74
f 143//75 144//75 146//75 145//75
f 145//76 146//76 148//76 147//76
f 147//77 148//77 150//77 149//77
f 149//78 150//78 152//78 151//78
f 151//79 152//79 154//79 153//79
f 153//80 154//80 156//80 155//80
f 155//81 156//81 158//81 157//81
f 157//82 158//82 160//82 159//82
f 159//83 160//83 162//83 161//83
f 161//84 162//84 164//84 163//84
f 163//85 164//85 166//85 165//85
f 165//86 166//86 168//86 167//86
f 167//87 168//87 170//87 169//87
f 169//88 170//88 172//88 171//88
f 171//89 172//89 174//89 173//89
f 173//90 174//90 176//90 175//90
f 175//91 176//91 178//91 177//91
f 177//92 178//92 180//92 179//92
f 179//93 180//93 182//93 181//93
f 181//94 182//94 184//94 183//94
f 183//95 184//95 186//95 185//95
f 185//96 186//96 188//96 187//96
f 187//97 188//97 190//97 189//97
f 189//98 190//98 192//98 191//98
f 191//99 192//99 194//99 193//99
f 136//100 134//100 196//100 194//100 192//100 190//100 188//100 186//100 184//100 182//100 180//100 178//100 176//100 174//100 172//100 170//100 168//100 166//100 164//100 162//100 160//100 158//100 156//100 154//100 152//100 150//100 148//100 146//100 144//100 142//100 140//100 138//100
f 193//101 194//101 196//101 195//101
f 195//102 196//102 134//102 133//102
f 133//103 135//103 137//103 139//103 141//103 143//103 145//103 147//103 149//103 151//103 153//103 155//103 157//103 159//103 161//103 163//103 165//103 167//103 169//103 171//103 173//103 175//103 177//103 179//103 181//103 183//103 185//103 187//103 189//103 191//103 193//103 195//103
o Cylinder.003
v -3.334400 9.096210 -0.712426
v -3.382954 0.673541 -0.712426
v -3.340137 9.096243 -0.711676
v -3.388690 0.673573 -0.711676
v -3.345652 9.096275 -0.709455
v -3.394206 0.673605 -0.709455
v -3.350736 9.096304 -0.705848
v -3.399289 0.673635 -0.705848
v -3.355191 9.096330 -0.700993
v -3.403745 0.673660 -0.700993
v -3.358848 9.096352 -0.695078
v -3.407402 0.673682 -0.695078
v -3.361565 9.096367 -0.688330
v -3.410119 0.673697 -0.688330
v -3.363238 9.096376 -0.681007
v -3.411792 0.673707 -0.681007
v -3.363803 9.096379 -0.673392
v -3.412357 0.673710 -0.673392
v -3.363238 9.096376 -0.665777
v -3.411792 0.673707 -0.665777
v -3.361565 9.096367 -0.658454
v -3.410119 0.673697 -0.658454
v -3.358848 9.096352 -0.651706
v -3.407402 0.673682 -0.651706
v -3.355191 9.096330 -0.645791
v -3.403745 0.673660 -0.645791
v -3.350736 9.096304 -0.640936
v -3.399289 0.673635 -0.640936
v -3.345652 9.096275 -0.637329
v -3.394206 0.673605 -0.637329
v -3.340137 9.096243 -0.635108
v -3.388690 0.673573 -0.635108
v -3.334400 9.096210 -0.634358
v -3.382954 0.673541 -0.634358
v -3.328664 9.096177 -0.635108
v -3.377218 0.673508 -0.635108
v -3.323148 9.096146 -0.637329
v -3.371702 0.673476 -0.637329
v -3.318065 9.096116 -0.640936
v -3.366619 0.673447 -0.640936
v -3.313609 9.096090 -0.645791
v -3.362163 0.673421 -0.645791
v -3.309953 9.096069 -0.651706
v -3.358506 0.673399 -0.651706
v -3.307236 9.096054 -0.658454
v -3.355789 0.673384 -0.658454
v -3.305562 9.096044 -0.665777
v -3.354116 0.673374 -0.665777
v -3.304997 9.096041 -0.673392
v -3.353551 0.673371 -0.673392
v -3.305562 9.096044 -0.681007
v -3.354116 0.673374 -0.681007
v -3.307236 9.096054 -0.688330
v -3.355789 0.673384 -0.688330
v -3.309953 9.096069 -0.695078
v -3.358506 0.673399 -0.695078
v -3.313609 9.096090 -0.700993
v -3.362163 0.673421 -0.700993
v -3.318065 9.096116 -0.705848
v -3.366619 0.673447 -0.705848
v -3.323148 9.096146 -0.709455
v -3.371702 0.673476 -0.709455
v -3.328664 9.096177 -0.711676
v -3.377218 0.673508 -0.711676
vn -0.1297 0.0007 -0.9916
vn -0.3735 0.0022 -0.9276
vn -0.5787 0.0033 -0.8155
vn -0.7367 0.0042 -0.6762
vn -0.8506 0.0049 -0.5258
vn -0.9276 0.0053 -0.3735
vn -0.9749 0.0056 -0.2228
vn -0.9972 0.0057 -0.0740
vn -0.9972 0.0057 0.0740
vn -0.9749 0.0056 0.2228
vn -0.9276 0.0053 0.3735
vn -0.8506 0.0049 0.5258
vn -0.7367 0.0042 0.6762
vn -0.5787 0.0033 0.8155
vn -0.3736 0.0022 0.9276
vn -0.1297 0.0007 0.9916
vn 0.1296 -0.0007 0.9916
vn 0.3735 -0.0022 0.9276
vn 0.5787 -0.0033 0.8155
vn 0.7367 -0.0042 0.6762
vn 0.8506 -0.0049 0.5258
vn 0.9276 -0.0053 0.3735
vn 0.9749 -0.0056 0.2228
vn 0.9972 -0.0057 0.0740
vn 0.9972 -0.0057 -0.0740
vn 0.9749 -0.0056 -0.2228
vn 0.9276 -0.0053 -0.3735
vn 0.8506 -0.0049 -0.5258
vn 0.7367 -0.0042 -0.6762
vn 0.5787 -0.0033 -0.8155
vn -0.0058 -1.0000 0.0000
vn 0.3735 -0.0022 -0.9276
vn 0.1297 -0.0007 -0.9916
vn 0.0058 1.0000 -0.0000
usemtl People_NONE
s off
f 197//104 198//104 200//104 199//104
f 199//105 200//105 202//105 201//105
f 201//106 202//106 204//106 203//106
f 203//107 204//107 206//107 205//107
f 205//108 206//108 208//108 207//108
f 207//109 208//109 210//109 209//109
f 209//110 210//110 212//110 211//110
f 211//111 212//111 214//111 213//111
f 213//112 214//112 216//112 215//112
f 215//113 216//113 218//113 217//113
f 217//114 218//114 220//114 219//114
f 219//115 220//115 222//115 221//115
f 221//116 222//116 224//116 223//116
f 223//117 224//117 226//117 225//117
f 225//118 226//118 228//118 227//118
f 227//119 228//119 230//119 229//119
f 229//120 230//120 232//120 231//120
f 231//121 232//121 234//121 233//121
f 233//122 234//122 236//122 235//122
f 235//123 236//123 238//123 237//123
f 237//124 238//124 240//124 239//124
f 239//125 240//125 242//125 241//125
f 241//126 242//126 244//126 243//126
f 243//127 244//127 246//127 245//127
f 245//128 246//128 248//128 247//128
f 247//129 248//129 250//129 249//129
f 249//130 250//130 252//130 251//130
f 251//131 252//131 254//131 253//131
f 253//132 254//132 256//132 255//132
f 255//133 256//133 258//133 257//133
f 200//134 198//134 260//134 258//134 256//134 254//134 252//134 250//134 248//134 246//134 244//134 242//134 240//134 238//134 236//134 234//134 232//134 230//134 228//134 226//134 224//134 222//134 220//134 218//134 216//134 214//134 212//134 210//134 208//134 206//134 204//134 202//134
f 257//135 258//135 260//135 259//135
f 259//136 260//136 198//136 197//136
f 197//137 199//137 201//137 203//137 205//137 207//137 209//137 211//137 213//137 215//137 217//137 219//137 221//137 223//137 225//137 227//137 229//137 231//137 233//137 235//137 237//137 239//137 241//137 243//137 245//137 247//137 249//137 251//137 253//137 255//137 257//137 259//137
