# Blender v2.79 (sub 0) OBJ File: 'Pyramide2.blend'
# www.blender.org
mtllib Pyramide2.mtl
o Cube
v -0.626341 0.653055 7.632882
v -0.626341 0.658201 7.632882
v -0.626341 0.653055 2.188179
v -0.626341 6.800964 2.188179
v 0.621495 0.653055 7.632882
v 0.621495 0.658201 7.632882
v 0.621495 0.653055 2.188179
v 0.621495 6.800964 2.188179
vt 0.333125 0.794048
vt 0.333125 0.793383
vt 0.499687 0.000000
vt 0.499688 0.794048
vt 0.166563 0.794048
vt 0.166563 0.000000
vt 0.333125 0.000000
vt 0.333125 0.794048
vt 0.666250 0.000000
vt 0.666250 0.794048
vt 0.499688 0.000665
vt 0.499688 0.000000
vt 0.000000 0.813738
vt 0.000000 0.813078
vt 0.166563 0.813078
vt 0.166563 0.813738
vt 0.333125 1.000000
vt 0.166563 1.000000
vt 0.166563 0.794048
vt 0.000000 0.000000
vn -1.0000 0.0000 0.0000
vn 0.0000 0.0000 -1.0000
vn 1.0000 0.0000 0.0000
vn 0.0000 0.0000 1.0000
vn 0.0000 -1.0000 0.0000
vn 0.0000 0.6633 0.7483
usemtl Material
s off
f 1/1/1 2/2/1 4/3/1 3/4/1
f 3/5/2 4/6/2 8/7/2 7/8/2
f 7/9/3 8/10/3 6/11/3 5/12/3
f 5/13/4 6/14/4 2/15/4 1/16/4
f 3/17/5 7/18/5 5/19/5 1/1/5
f 8/20/6 4/6/6 2/15/6 6/14/6
o Cube.026_Cube.006
v 3.791208 0.635137 -3.491390
v 3.791208 0.635137 3.717428
v -3.791209 0.635137 3.717427
v -3.791207 0.635137 -3.491391
v 3.044143 3.726671 -2.781135
v 3.044143 3.726671 3.007173
v -3.044143 3.726671 3.007173
v -3.044143 3.726671 -2.781135
v -0.652340 0.572695 6.472789
v -0.652340 0.585629 7.588846
v -0.652340 0.503255 1.948416
v -0.652340 7.053545 1.948416
v 0.652340 0.572695 6.472789
v 0.652340 0.585629 7.588846
v 0.652340 0.503255 1.948416
v 0.652340 7.053545 1.948416
v -3.271757 3.507268 3.384776
v -3.271757 3.837987 3.384776
v -3.271757 3.507268 -3.158739
v -3.271757 3.837987 -3.158739
v 3.271757 3.507268 3.384776
v 3.271757 3.837987 3.384776
v 3.271757 3.507268 -3.158739
v 3.271757 3.837987 -3.158739
v 0.389056 8.504869 -0.256868
v 0.389056 8.504869 0.482906
v -0.389056 8.504869 0.482906
v -0.389056 8.504869 -0.256868
v 0.312392 10.111248 -0.183981
v 0.312392 10.111248 0.410019
v -0.312392 10.111248 0.410019
v -0.312392 10.111248 -0.183981
v -0.854310 4.635900 2.579760
v -0.854310 6.013517 2.579760
v -0.854310 4.635900 1.565880
v -0.854310 6.013517 1.565880
v 0.854310 4.635900 2.579760
v 0.854310 6.013517 2.579760
v 0.854310 4.635900 1.565880
v 0.854310 6.013517 1.565880
v -0.699129 5.719649 1.851815
v -0.699129 6.847029 1.851815
v -0.699129 5.719649 1.022102
v -0.699129 6.847029 1.022102
v 0.699129 5.719649 1.851815
v 0.699129 6.847029 1.851815
v 0.699129 5.719649 1.022102
v 0.699129 6.847029 1.022102
v -1.353050 0.290990 5.928441
v -1.353050 2.472851 5.928441
v -1.353050 0.290990 4.322667
v -1.353050 2.472851 4.322667
v 1.353050 0.290990 5.928441
v 1.353050 2.472851 5.928441
v 1.353050 0.290990 4.322667
v 1.353050 2.472851 4.322667
v -1.444036 0.382677 5.812375
v -1.444036 0.596835 5.812375
v -1.444036 0.382677 4.098620
v -1.444036 0.596835 4.098620
v 1.444036 0.382677 5.812375
v 1.444036 0.596835 5.812375
v 1.444036 0.382677 4.098620
v 1.444036 0.596835 4.098620
v -2.248033 0.277965 4.871892
v -2.248033 0.611360 4.871892
v -2.248033 0.277965 2.203970
v -2.248033 0.611360 2.203970
v 2.248033 0.277965 4.871892
v 2.248033 0.611360 4.871892
v 2.248033 0.277965 2.203970
v 2.248033 0.611360 2.203970
v 1.441324 3.750464 1.953040
v 1.441324 3.536708 1.953040
v 1.441324 3.750464 3.663575
v 1.441324 3.536708 3.663575
v -1.441324 3.750464 1.953040
v -1.441324 3.536708 1.953040
v -1.441324 3.750464 3.663575
v -1.441324 3.536708 3.663575
v 0.774452 6.211395 1.248878
v 0.774452 6.096540 1.248878
v 0.774452 6.211395 2.167983
v 0.774452 6.096540 2.167983
v -0.774452 6.211395 1.248878
v -0.774452 6.096540 1.248878
v -0.774452 6.211395 2.167983
v -0.774452 6.096540 2.167983
v -2.151502 0.245027 4.820836
v -2.151502 3.714429 4.820836
v -2.151502 0.245027 2.267474
v -2.151502 3.714429 2.267474
v 2.151502 0.245027 4.820836
v 2.151502 3.714429 4.820836
v 2.151502 0.245027 2.267474
v 2.151502 3.714429 2.267474
v -2.151502 2.129059 3.180923
v -2.151502 5.598461 3.180923
v -2.151502 2.129059 0.627562
v -2.151502 5.598461 0.627562
v 2.151502 2.129059 3.180923
v 2.151502 5.598461 3.180923
v 2.151502 2.129059 0.627562
v 2.151502 5.598461 0.627562
v 3.147723 2.901593 -2.879610
v 3.147723 2.901593 3.105648
v -3.147723 2.901593 3.105648
v -3.147722 2.901593 -2.879612
v 2.527459 5.468398 -2.289907
v 2.527459 5.468398 2.515945
v -2.527459 5.468398 2.515945
v -2.527459 5.468398 -2.289907
v 2.391188 5.038528 -2.160352
v 2.391188 5.038528 2.386389
v -2.391189 5.038528 2.386389
v -2.391188 5.038528 -2.160352
v 1.920001 6.988419 -1.712380
v 1.920001 6.988419 1.938417
v -1.920001 6.988419 1.938417
v -1.920001 6.988419 -1.712380
v 1.555379 6.714340 -1.365723
v 1.555379 6.714340 1.591762
v -1.555379 6.714340 1.591761
v -1.555378 6.714340 -1.365724
v 1.248889 7.982671 -1.074335
v 1.248889 7.982671 1.300373
v -1.248889 7.982671 1.300373
v -1.248889 7.982671 -1.074335
v 1.066809 7.711100 -0.901227
v 1.066809 7.711100 1.127265
v -1.066809 7.711100 1.127264
v -1.066809 7.711100 -0.901227
v 0.856593 8.581028 -0.701367
v 0.856593 8.581028 0.927406
v -0.856593 8.581028 0.927406
v -0.856593 8.581028 -0.701367
v -4.173592 0.408244 4.286611
v -4.173592 0.830124 4.286611
v -4.173592 0.408244 -4.060573
v -4.173592 0.830124 -4.060573
v 4.173592 0.408244 4.286611
v 4.173592 0.830124 4.286611
v 4.173592 0.408244 -4.060573
v 4.173592 0.830124 -4.060573
v -2.891441 5.321230 3.004460
v -2.891441 5.613507 3.004460
v -2.891441 5.321230 -2.778422
v -2.891441 5.613507 -2.778422
v 2.891441 5.321230 3.004460
v 2.891441 5.613507 3.004460
v 2.891441 5.321230 -2.778422
v 2.891441 5.613507 -2.778422
v -0.598032 9.855318 0.711051
v -0.598032 9.915770 0.711051
v -0.598032 9.855318 -0.485013
v -0.598032 9.915770 -0.485013
v 0.598032 9.855318 0.711051
v 0.598032 9.915770 0.711051
v 0.598032 9.855318 -0.485013
v 0.598032 9.915770 -0.485013
v -0.598032 9.718980 0.711051
v -0.598032 9.779431 0.711051
v -0.598032 9.718980 -0.485013
v -0.598032 9.779431 -0.485013
v 0.598032 9.718980 0.711051
v 0.598032 9.779431 0.711051
v 0.598032 9.718980 -0.485013
v 0.598032 9.779431 -0.485013
v -0.598032 9.481026 0.711051
v -0.598032 9.541476 0.711051
v -0.598032 9.481026 -0.485013
v -0.598032 9.541476 -0.485013
v 0.598032 9.481026 0.711051
v 0.598032 9.541476 0.711051
v 0.598032 9.481026 -0.485013
v 0.598032 9.541476 -0.485013
v -0.598032 9.090517 0.711051
v -0.598032 9.150968 0.711051
v -0.598032 9.090517 -0.485013
v -0.598032 9.150968 -0.485013
v 0.598032 9.090517 0.711051
v 0.598032 9.150968 0.711051
v 0.598032 9.090517 -0.485013
v 0.598032 9.150968 -0.485013
vt 0.188464 0.687198
vt 0.188464 0.824152
vt 0.077867 0.824153
vt 0.077867 0.687198
vt 0.215606 0.565892
vt 0.229177 0.394997
vt 0.339774 0.394997
vt 0.353345 0.565892
vt 0.077867 0.532375
vt 0.091438 0.361300
vt 0.202035 0.361300
vt 0.215606 0.532375
vt 0.491406 0.000000
vt 0.504976 0.170895
vt 0.367238 0.170895
vt 0.380808 0.000000
vt 0.504976 0.341460
vt 0.367238 0.341460
vt 0.367238 0.170895
vt 0.504976 0.170895
vt 0.353345 0.565892
vt 0.366916 0.394997
vt 0.477513 0.394997
vt 0.491084 0.565892
vt 0.129159 0.357470
vt 0.107834 0.356757
vt 0.215606 0.000000
vt 0.215606 0.361300
vt 0.732398 0.706821
vt 0.732398 0.345521
vt 0.756099 0.345521
vt 0.756099 0.706821
vt 0.000000 0.361091
vt 0.009928 0.000000
vt 0.107834 0.361091
vt 0.086502 0.360905
vt 0.049158 0.856609
vt 0.049158 0.830201
vt 0.072858 0.830201
vt 0.072858 0.856609
vt 0.072858 0.963668
vt 0.049158 0.963668
vt 0.048787 0.361091
vt 0.072487 0.361091
vt 0.072487 0.722690
vt 0.048787 0.722690
vt 0.756099 0.861644
vt 0.741367 0.861644
vt 0.741367 0.706821
vt 0.756099 0.706821
vt 0.789621 0.613063
vt 0.774890 0.613063
vt 0.774890 0.465868
vt 0.789621 0.465868
vt 0.774882 0.653636
vt 0.789613 0.653636
vt 0.789613 0.808459
vt 0.774882 0.808459
vt 0.785680 0.080852
vt 0.800405 0.080851
vt 0.800405 0.228046
vt 0.785680 0.228046
vt 0.334473 0.720715
vt 0.215606 0.720715
vt 0.215606 0.565892
vt 0.334473 0.565892
vt 0.196734 0.687198
vt 0.077867 0.687198
vt 0.077867 0.532375
vt 0.196734 0.532375
vt 0.062922 0.740193
vt 0.048787 0.740193
vt 0.048787 0.722690
vt 0.062922 0.722690
vt 0.494862 0.379895
vt 0.494862 0.393949
vt 0.483513 0.393949
vt 0.483513 0.379895
vt 0.802626 0.961006
vt 0.804018 0.872363
vt 0.815368 0.872363
vt 0.816760 0.961006
vt 0.802632 0.742264
vt 0.804024 0.653636
vt 0.815374 0.653636
vt 0.816766 0.742264
vt 0.802626 0.872363
vt 0.804018 0.783720
vt 0.815368 0.783720
vt 0.816760 0.872363
vt 0.813147 0.080851
vt 0.814540 0.169494
vt 0.800405 0.169494
vt 0.801797 0.080851
vt 0.428633 0.990927
vt 0.428633 0.914941
vt 0.448006 0.914941
vt 0.448006 0.990927
vt 0.748480 0.075986
vt 0.748480 0.000000
vt 0.779518 0.000000
vt 0.779518 0.075986
vt 0.805409 0.228046
vt 0.805409 0.304033
vt 0.786037 0.304033
vt 0.786037 0.228046
vt 0.754999 0.303998
vt 0.754999 0.228046
vt 0.786037 0.228046
vt 0.786037 0.303998
vt 0.636566 0.345418
vt 0.636566 0.306983
vt 0.655938 0.306983
vt 0.655938 0.345418
vt 0.502885 0.341460
vt 0.502885 0.379895
vt 0.483513 0.379895
vt 0.483513 0.341460
vt 0.640711 0.997339
vt 0.640711 0.935156
vt 0.656564 0.935156
vt 0.656564 0.997339
vt 0.190125 0.792058
vt 0.190125 0.729874
vt 0.215526 0.729874
vt 0.215526 0.792058
vt 0.159087 0.931731
vt 0.159087 0.993914
vt 0.143233 0.993914
vt 0.143233 0.931731
vt 0.779518 0.062155
vt 0.779518 0.000000
vt 0.804918 0.000000
vt 0.804918 0.062155
vt 0.706914 0.338437
vt 0.706914 0.306983
vt 0.722767 0.306983
vt 0.722767 0.338437
vt 0.691060 0.338437
vt 0.691060 0.306983
vt 0.706914 0.306983
vt 0.706914 0.338437
vt 0.754999 0.228046
vt 0.754999 0.107699
vt 0.785680 0.107699
vt 0.785680 0.228046
vt 0.164742 0.944499
vt 0.164742 0.824153
vt 0.213900 0.824153
vt 0.213900 0.944499
vt 0.786780 0.345521
vt 0.786780 0.465868
vt 0.756099 0.465868
vt 0.756099 0.345521
vt 0.000000 0.950493
vt 0.000000 0.830201
vt 0.049158 0.830201
vt 0.049158 0.950493
vt 0.763401 0.995893
vt 0.763401 0.935020
vt 0.794083 0.935020
vt 0.794083 0.995893
vt 0.732720 0.995893
vt 0.732720 0.935020
vt 0.763401 0.935020
vt 0.763401 0.995893
vt 0.729066 0.736251
vt 0.719527 0.736251
vt 0.719527 0.695703
vt 0.729066 0.695703
vt 0.601390 0.348469
vt 0.591851 0.348469
vt 0.591851 0.283503
vt 0.601390 0.283503
vt 0.601390 0.389018
vt 0.591851 0.389018
vt 0.591851 0.348469
vt 0.601390 0.348469
vt 0.719527 0.565892
vt 0.729062 0.565892
vt 0.729062 0.630859
vt 0.719527 0.630859
vt 0.299327 0.996185
vt 0.299327 0.931219
vt 0.332071 0.931219
vt 0.332071 0.996185
vt 0.266582 0.996185
vt 0.266582 0.931219
vt 0.299327 0.931219
vt 0.299327 0.996185
vt 0.671414 0.998280
vt 0.656564 0.998280
vt 0.656564 0.935156
vt 0.671414 0.935156
vt 0.804472 0.567006
vt 0.789621 0.567006
vt 0.789621 0.465868
vt 0.804472 0.465868
vt 0.804472 0.630130
vt 0.789621 0.630130
vt 0.789621 0.567006
vt 0.804472 0.567006
vt 0.799799 0.329042
vt 0.814642 0.329042
vt 0.814642 0.430180
vt 0.799799 0.430180
vt 0.215606 0.935562
vt 0.215606 0.834424
vt 0.266582 0.834424
vt 0.266582 0.935562
vt 0.748480 0.000000
vt 0.748480 0.101138
vt 0.697504 0.101138
vt 0.697504 0.000000
vt 0.722877 0.305049
vt 0.732398 0.305049
vt 0.732398 0.345521
vt 0.722877 0.345521
vt 0.719527 0.630859
vt 0.729048 0.630859
vt 0.729048 0.695703
vt 0.719527 0.695703
vt 0.741920 0.345521
vt 0.732398 0.345521
vt 0.732398 0.305049
vt 0.741920 0.305049
vt 0.680931 1.000000
vt 0.671414 1.000000
vt 0.671414 0.935156
vt 0.680931 0.935156
vt 0.143233 0.931731
vt 0.143233 0.996575
vt 0.110550 0.996575
vt 0.110550 0.931731
vt 0.110550 0.931731
vt 0.110550 0.996575
vt 0.077867 0.996575
vt 0.077867 0.931731
vt 0.072490 0.430775
vt 0.077606 0.430775
vt 0.077606 0.452522
vt 0.072490 0.452522
vt 0.077603 0.395933
vt 0.072487 0.395933
vt 0.072487 0.361091
vt 0.077603 0.361091
vt 0.072490 0.452522
vt 0.077606 0.452522
vt 0.077606 0.474268
vt 0.072490 0.474268
vt 0.077603 0.430775
vt 0.072490 0.430775
vt 0.072490 0.395933
vt 0.077603 0.395933
vt 0.691060 0.306983
vt 0.691060 0.341826
vt 0.673499 0.341826
vt 0.673499 0.306983
vt 0.673499 0.306983
vt 0.673499 0.341826
vt 0.655938 0.341826
vt 0.655938 0.306983
vt 0.000000 0.743821
vt 0.000000 0.552456
vt 0.048787 0.552456
vt 0.048787 0.743821
vt 0.563194 0.757257
vt 0.563194 0.565892
vt 0.641360 0.565892
vt 0.641360 0.757257
vt 0.706212 0.299064
vt 0.706212 0.107699
vt 0.754999 0.107699
vt 0.754999 0.299064
vt 0.619337 0.191277
vt 0.619337 0.000000
vt 0.697504 0.000000
vt 0.697504 0.191277
vt 0.334473 0.941551
vt 0.334473 0.844756
vt 0.383260 0.844756
vt 0.383260 0.941551
vt 0.315369 0.834424
vt 0.315369 0.931219
vt 0.266582 0.931219
vt 0.266582 0.834424
vt 0.683611 0.536886
vt 0.683611 0.345521
vt 0.732398 0.345521
vt 0.732398 0.536886
vt 0.605444 0.536886
vt 0.605444 0.345521
vt 0.683611 0.345521
vt 0.683611 0.536886
vt 0.000000 0.552456
vt 0.000000 0.361091
vt 0.048787 0.361091
vt 0.048787 0.552456
vt 0.641360 0.757170
vt 0.641360 0.565892
vt 0.719527 0.565892
vt 0.719527 0.757170
vt 0.497620 0.941402
vt 0.497620 0.844607
vt 0.546407 0.844607
vt 0.546407 0.941402
vt 0.497620 0.844607
vt 0.497620 0.941402
vt 0.448833 0.941402
vt 0.448833 0.844607
vt 0.307432 0.834424
vt 0.215606 0.834424
vt 0.215606 0.720715
vt 0.307432 0.720715
vt 0.491084 0.536886
vt 0.502352 0.394997
vt 0.594177 0.394997
vt 0.605444 0.536886
vt 0.334473 0.707930
vt 0.345740 0.565892
vt 0.437566 0.565892
vt 0.448833 0.707930
vt 0.608069 0.000000
vt 0.619337 0.141889
vt 0.504977 0.141889
vt 0.516244 0.000000
vt 0.619337 0.283503
vt 0.504977 0.283503
vt 0.448833 0.707781
vt 0.460101 0.565892
vt 0.551926 0.565892
vt 0.563194 0.707781
vt 0.069756 0.743821
vt 0.069756 0.830201
vt 0.000000 0.830201
vt 0.000000 0.743821
vt 0.563194 0.865044
vt 0.571753 0.757257
vt 0.641509 0.757257
vt 0.650068 0.865044
vt 0.504977 0.391403
vt 0.513536 0.283503
vt 0.583292 0.283503
vt 0.591851 0.391403
vt 0.627896 0.299064
vt 0.619337 0.191277
vt 0.706212 0.191277
vt 0.697652 0.299064
vt 0.077867 0.931731
vt 0.077867 0.824153
vt 0.164742 0.824153
vt 0.164742 0.931731
vt 0.736943 0.757257
vt 0.728384 0.865044
vt 0.658628 0.865044
vt 0.650068 0.757257
vt 0.428633 0.971128
vt 0.383260 0.971128
vt 0.383260 0.914941
vt 0.428633 0.914941
vt 0.676211 0.935156
vt 0.681779 0.865044
vt 0.727152 0.865044
vt 0.732720 0.935156
vt 0.383260 0.914941
vt 0.388827 0.844756
vt 0.434201 0.844756
vt 0.439768 0.914941
vt 0.614135 0.865044
vt 0.619702 0.935156
vt 0.563194 0.935156
vt 0.568761 0.865044
vt 0.732720 0.935020
vt 0.732720 0.865044
vt 0.789229 0.865044
vt 0.789229 0.935020
vt 0.619702 0.935156
vt 0.625270 0.865044
vt 0.670644 0.865044
vt 0.676211 0.935156
vt 0.636565 0.306983
vt 0.636565 0.345521
vt 0.605444 0.345521
vt 0.605444 0.306983
vt 0.563194 0.983244
vt 0.567012 0.935156
vt 0.598133 0.935156
vt 0.601952 0.983244
vt 0.367238 0.389599
vt 0.371056 0.341460
vt 0.402177 0.341460
vt 0.405996 0.389599
vt 0.440936 0.341460
vt 0.444754 0.389548
vt 0.405996 0.389548
vt 0.409815 0.341460
vt 0.601952 0.983151
vt 0.601952 0.935156
vt 0.640711 0.935156
vt 0.640711 0.983151
vt 0.444754 0.389548
vt 0.448573 0.341460
vt 0.479694 0.341460
vt 0.483513 0.389548
vt 0.334473 0.918214
vt 0.315681 0.918214
vt 0.315681 0.720715
vt 0.334473 0.720715
vt 0.774890 0.653636
vt 0.756099 0.653636
vt 0.756099 0.465868
vt 0.774890 0.465868
vt 0.215526 0.729874
vt 0.196734 0.729874
vt 0.196734 0.532375
vt 0.215525 0.532375
vt 0.774882 0.841403
vt 0.756099 0.841403
vt 0.756099 0.653636
vt 0.774882 0.653636
vt 0.367238 0.394997
vt 0.215606 0.394997
vt 0.215606 0.197499
vt 0.367237 0.197499
vt 0.367238 0.197499
vt 0.215606 0.197499
vt 0.215606 0.000000
vt 0.367237 0.000000
vt 0.559426 0.981433
vt 0.546407 0.981433
vt 0.546407 0.844607
vt 0.559426 0.844607
vt 0.802632 0.783720
vt 0.789613 0.783720
vt 0.789613 0.653636
vt 0.802631 0.653636
vt 0.799799 0.465868
vt 0.786780 0.465868
vt 0.786780 0.329042
vt 0.799799 0.329042
vt 0.789613 0.783720
vt 0.802626 0.783720
vt 0.802626 0.913805
vt 0.789613 0.913805
vt 0.439522 0.844756
vt 0.334473 0.844756
vt 0.334473 0.707930
vt 0.439522 0.707930
vt 0.553883 0.844607
vt 0.448833 0.844607
vt 0.448833 0.707781
vt 0.553883 0.707781
vt 0.075182 0.530867
vt 0.072490 0.530867
vt 0.072490 0.502568
vt 0.075182 0.502568
vt 0.072490 0.700664
vt 0.075182 0.700664
vt 0.075182 0.727570
vt 0.072490 0.727570
vt 0.075182 0.672365
vt 0.072490 0.672365
vt 0.072490 0.644065
vt 0.075182 0.644065
vt 0.559266 0.707781
vt 0.561957 0.707781
vt 0.561957 0.734686
vt 0.559266 0.734686
vt 0.643174 0.565185
vt 0.621447 0.565185
vt 0.621447 0.536886
vt 0.643174 0.536886
vt 0.534538 0.565186
vt 0.512811 0.565186
vt 0.512811 0.536886
vt 0.534538 0.536886
vt 0.075182 0.644065
vt 0.072490 0.644065
vt 0.072490 0.615766
vt 0.075182 0.615766
vt 0.191157 0.687198
vt 0.193850 0.687198
vt 0.193850 0.714103
vt 0.191157 0.714103
vt 0.075182 0.587466
vt 0.072490 0.587466
vt 0.072490 0.559167
vt 0.075182 0.559167
vt 0.553883 0.707781
vt 0.556574 0.707781
vt 0.556574 0.734686
vt 0.553883 0.734686
vt 0.211853 0.820357
vt 0.190125 0.820357
vt 0.190125 0.792058
vt 0.211853 0.792058
vt 0.556266 0.565186
vt 0.534538 0.565186
vt 0.534538 0.536886
vt 0.556266 0.536886
vt 0.075182 0.502568
vt 0.072490 0.502568
vt 0.072490 0.474268
vt 0.075182 0.474268
vt 0.193850 0.687198
vt 0.196542 0.687198
vt 0.196542 0.714103
vt 0.193850 0.714103
vt 0.075182 0.700664
vt 0.072490 0.700664
vt 0.072490 0.672365
vt 0.075182 0.672365
vt 0.556574 0.707781
vt 0.559266 0.707781
vt 0.559266 0.734686
vt 0.556574 0.734686
vt 0.621447 0.565185
vt 0.599720 0.565185
vt 0.599720 0.536886
vt 0.621447 0.536886
vt 0.577993 0.565186
vt 0.556266 0.565186
vt 0.556266 0.536886
vt 0.577993 0.536886
vt 0.075182 0.615766
vt 0.072490 0.615766
vt 0.072490 0.587466
vt 0.075182 0.587466
vt 0.188464 0.687198
vt 0.191157 0.687198
vt 0.191157 0.714103
vt 0.188464 0.714103
vt 0.075182 0.559167
vt 0.072490 0.559167
vt 0.072490 0.530867
vt 0.075182 0.530867
vt 0.439522 0.707930
vt 0.442214 0.707930
vt 0.442214 0.734836
vt 0.439522 0.734836
vt 0.599720 0.565185
vt 0.577993 0.565185
vt 0.577993 0.536886
vt 0.599720 0.536886
vt 0.512811 0.565186
vt 0.491084 0.565186
vt 0.491084 0.536886
vt 0.512811 0.536886
vn 0.0000 1.0000 0.0000
vn 0.9720 0.2349 0.0000
vn -0.0000 0.2239 0.9746
vn 0.0000 0.2239 -0.9746
vn 0.0000 -1.0000 0.0000
vn -0.9720 0.2349 -0.0000
vn -1.0000 0.0000 0.0000
vn 0.0000 0.0000 -1.0000
vn 1.0000 0.0000 0.0000
vn 0.0000 -0.9999 0.0116
vn 0.0000 -0.9999 0.0153
vn 0.0000 0.6572 0.7537
vn 0.0000 0.0000 1.0000
vn 0.9989 0.0477 0.0000
vn -0.0000 0.0453 0.9990
vn -0.9989 0.0477 -0.0000
vn 0.0000 0.0453 -0.9990
usemtl Material.003
s off
f 13/21/7 16/22/7 15/23/7 14/24/7
f 9/25/8 13/26/8 14/27/8 10/28/8
f 10/29/9 14/30/9 15/31/9 11/32/9
f 13/33/10 9/34/10 12/35/10 16/36/10
usemtl Material.003_NONE
f 9/37/11 10/38/11 11/39/11 12/40/11
f 11/41/12 15/42/12 16/43/12 12/44/12
usemtl Material.014
f 17/45/13 18/46/13 20/47/13 19/48/13
f 19/49/14 20/50/14 24/51/14 23/52/14
f 23/53/15 24/54/15 22/55/15 21/56/15
f 21/57/16 22/58/16 18/59/16 17/60/16
f 19/61/17 23/62/17 21/57/17 17/60/17
f 24/63/18 20/64/18 18/65/18 22/66/18
f 25/67/13 26/68/13 28/69/13 27/70/13
f 27/71/14 28/72/14 32/73/14 31/74/14
f 31/75/15 32/76/15 30/77/15 29/78/15
f 29/79/19 30/80/19 26/81/19 25/82/19
f 27/83/11 31/84/11 29/85/11 25/86/11
f 32/87/7 28/88/7 26/89/7 30/90/7
f 33/91/11 34/92/11 35/93/11 36/94/11
f 37/95/7 40/96/7 39/97/7 38/98/7
f 33/99/20 37/100/20 38/101/20 34/102/20
f 34/103/21 38/104/21 39/105/21 35/106/21
f 35/107/22 39/108/22 40/109/22 36/110/22
f 37/111/23 33/112/23 36/113/23 40/114/23
f 41/115/13 42/116/13 44/117/13 43/118/13
f 43/119/14 44/120/14 48/121/14 47/122/14
f 47/123/15 48/124/15 46/125/15 45/126/15
f 45/127/19 46/128/19 42/129/19 41/130/19
f 43/131/11 47/132/11 45/133/11 41/134/11
f 48/135/7 44/136/7 42/137/7 46/138/7
f 49/139/13 50/140/13 52/141/13 51/142/13
f 51/143/14 52/144/14 56/145/14 55/146/14
f 55/147/15 56/148/15 54/149/15 53/150/15
f 53/151/19 54/152/19 50/153/19 49/154/19
f 51/155/11 55/156/11 53/157/11 49/158/11
f 56/159/7 52/160/7 50/161/7 54/162/7
f 57/163/13 58/164/13 60/165/13 59/166/13
f 59/167/14 60/168/14 64/169/14 63/170/14
f 63/171/15 64/172/15 62/173/15 61/174/15
f 61/175/19 62/176/19 58/177/19 57/178/19
f 59/179/11 63/180/11 61/181/11 57/182/11
f 64/183/7 60/184/7 58/185/7 62/186/7
f 65/187/13 66/188/13 68/189/13 67/190/13
f 67/191/14 68/192/14 72/193/14 71/194/14
f 71/195/15 72/196/15 70/197/15 69/198/15
f 69/199/19 70/200/19 66/201/19 65/202/19
f 67/203/11 71/204/11 69/205/11 65/206/11
f 72/207/7 68/208/7 66/209/7 70/210/7
f 73/211/13 74/212/13 76/213/13 75/214/13
f 75/215/14 76/216/14 80/217/14 79/218/14
f 79/219/15 80/220/15 78/221/15 77/222/15
f 77/223/19 78/224/19 74/225/19 73/226/19
f 75/227/11 79/228/11 77/229/11 73/230/11
f 80/231/7 76/232/7 74/233/7 78/234/7
f 81/235/13 82/236/13 84/237/13 83/238/13
f 83/239/14 84/240/14 88/241/14 87/242/14
f 87/243/15 88/244/15 86/245/15 85/246/15
f 85/247/19 86/248/19 82/249/19 81/250/19
f 83/251/11 87/252/11 85/253/11 81/254/11
f 88/255/7 84/256/7 82/257/7 86/258/7
f 89/259/13 90/260/13 92/261/13 91/262/13
f 91/263/14 92/264/14 96/265/14 95/266/14
f 95/267/15 96/268/15 94/269/15 93/270/15
f 93/271/19 94/272/19 90/273/19 89/274/19
f 91/275/11 95/276/11 93/277/11 89/278/11
f 96/279/7 92/280/7 90/281/7 94/282/7
usemtl Material.001
f 97/283/13 98/284/13 100/285/13 99/286/13
f 99/287/14 100/288/14 104/289/14 103/290/14
f 103/291/15 104/292/15 102/293/15 101/294/15
f 101/295/19 102/296/19 98/297/19 97/298/19
f 99/299/11 103/300/11 101/301/11 97/302/11
f 104/303/7 100/304/7 98/305/7 102/306/7
usemtl Material.002
f 105/307/13 106/308/13 108/309/13 107/310/13
f 107/311/14 108/312/14 112/313/14 111/314/14
f 111/315/15 112/316/15 110/317/15 109/318/15
f 109/319/19 110/320/19 106/321/19 105/322/19
f 107/323/11 111/324/11 109/325/11 105/326/11
f 112/327/7 108/328/7 106/329/7 110/330/7
usemtl Material.006
f 117/331/7 120/332/7 119/333/7 118/334/7
f 113/335/8 117/336/8 118/337/8 114/338/8
f 114/339/9 118/340/9 119/341/9 115/342/9
f 117/343/10 113/344/10 116/345/10 120/346/10
usemtl Material.006_NONE
f 113/344/11 114/347/11 115/348/11 116/345/11
f 115/349/12 119/350/12 120/351/12 116/352/12
usemtl Material.007
f 125/353/7 128/354/7 127/355/7 126/356/7
f 121/357/8 125/358/8 126/359/8 122/360/8
f 122/361/9 126/362/9 127/363/9 123/364/9
f 125/365/10 121/366/10 124/367/10 128/368/10
usemtl Material.007_NONE
f 121/369/11 122/370/11 123/371/11 124/372/11
f 123/373/12 127/374/12 128/375/12 124/376/12
usemtl Material.008
f 133/377/7 136/378/7 135/379/7 134/380/7
f 129/381/8 133/382/8 134/383/8 130/384/8
f 130/385/9 134/386/9 135/387/9 131/388/9
f 133/389/10 129/390/10 132/391/10 136/392/10
usemtl Material.008_NONE
f 129/393/11 130/394/11 131/395/11 132/396/11
f 131/397/12 135/398/12 136/399/12 132/400/12
usemtl Material.009
f 141/401/7 144/402/7 143/403/7 142/404/7
f 137/405/8 141/406/8 142/407/8 138/408/8
f 138/409/9 142/410/9 143/411/9 139/412/9
f 141/413/10 137/414/10 140/415/10 144/416/10
usemtl Material.009_NONE
f 137/417/11 138/418/11 139/419/11 140/420/11
f 139/421/12 143/422/12 144/423/12 140/424/12
usemtl Material.012
f 145/425/13 146/426/13 148/427/13 147/428/13
f 147/429/14 148/430/14 152/431/14 151/432/14
f 151/433/15 152/434/15 150/435/15 149/436/15
f 149/437/19 150/438/19 146/439/19 145/440/19
f 147/441/11 151/442/11 149/443/11 145/444/11
f 152/445/7 148/446/7 146/447/7 150/448/7
usemtl Material.013
f 153/449/13 154/450/13 156/451/13 155/452/13
f 155/453/14 156/454/14 160/455/14 159/456/14
f 159/457/15 160/458/15 158/459/15 157/460/15
f 157/461/19 158/462/19 154/463/19 153/464/19
f 155/465/11 159/466/11 157/467/11 153/468/11
f 160/469/7 156/470/7 154/471/7 158/472/7
usemtl Material.016
f 161/473/13 162/474/13 164/475/13 163/476/13
f 163/477/14 164/478/14 168/479/14 167/480/14
f 167/481/15 168/482/15 166/483/15 165/484/15
f 165/485/19 166/486/19 162/487/19 161/488/19
f 163/489/11 167/490/11 165/491/11 161/492/11
f 168/493/7 164/494/7 162/495/7 166/496/7
usemtl Material.017
f 169/497/13 170/498/13 172/499/13 171/500/13
f 171/501/14 172/502/14 176/503/14 175/504/14
f 175/505/15 176/506/15 174/507/15 173/508/15
f 173/509/19 174/510/19 170/511/19 169/512/19
f 171/513/11 175/514/11 173/515/11 169/516/11
f 176/517/7 172/518/7 170/519/7 174/520/7
usemtl Material.018
f 177/521/13 178/522/13 180/523/13 179/524/13
f 179/525/14 180/526/14 184/527/14 183/528/14
f 183/529/15 184/530/15 182/531/15 181/532/15
f 181/533/19 182/534/19 178/535/19 177/536/19
f 179/537/11 183/538/11 181/539/11 177/540/11
f 184/541/7 180/542/7 178/543/7 182/544/7
usemtl Material.019
f 185/545/13 186/546/13 188/547/13 187/548/13
f 187/549/14 188/550/14 192/551/14 191/552/14
f 191/553/15 192/554/15 190/555/15 189/556/15
f 189/557/19 190/558/19 186/559/19 185/560/19
f 187/561/11 191/562/11 189/563/11 185/564/11
f 192/565/7 188/566/7 186/567/7 190/568/7
