# Blender v2.79 (sub 0) OBJ File: 'Runner.blend'
# www.blender.org
mtllib Runner.mtl
o Cylinder
v -1.374416 0.022993 -0.170218
v 1.400880 0.022993 -0.170218
v -1.374416 -0.001132 -0.166947
v 1.400880 -0.001132 -0.166947
v -1.374416 -0.024330 -0.157261
v 1.400880 -0.024330 -0.157261
v -1.374416 -0.045709 -0.141531
v 1.400880 -0.045709 -0.141531
v -1.374416 -0.064448 -0.120362
v 1.400880 -0.064448 -0.120362
v -1.374416 -0.079826 -0.094568
v 1.400880 -0.079826 -0.094568
v -1.374416 -0.091254 -0.065140
v 1.400880 -0.091254 -0.065140
v -1.374416 -0.098291 -0.033208
v 1.400880 -0.098291 -0.033208
v -1.374416 -0.100667 -0.000000
v 1.400880 -0.100667 -0.000000
v -1.374416 -0.098291 0.033208
v 1.400880 -0.098291 0.033208
v -1.374416 -0.091254 0.065140
v 1.400880 -0.091254 0.065140
v -1.374416 -0.079826 0.094568
v 1.400880 -0.079826 0.094568
v -1.374416 -0.064448 0.120362
v 1.400880 -0.064448 0.120362
v -1.374416 -0.045709 0.141531
v 1.400880 -0.045709 0.141531
v -1.374416 -0.024330 0.157261
v 1.400880 -0.024330 0.157261
v -1.374416 -0.001132 0.166947
v 1.400880 -0.001132 0.166947
v -1.374416 0.022993 0.170218
v 1.400880 0.022993 0.170218
v -1.374416 0.047117 0.166947
v 1.400880 0.047117 0.166947
v -1.374416 0.070315 0.157261
v 1.400880 0.070315 0.157261
v -1.374416 0.091694 0.141531
v 1.400880 0.091694 0.141531
v -1.374416 0.110433 0.120362
v 1.400880 0.110433 0.120362
v -1.374416 0.125812 0.094568
v 1.400880 0.125812 0.094568
v -1.374416 0.137239 0.065140
v 1.400880 0.137239 0.065140
v -1.374416 0.144276 0.033208
v 1.400880 0.144276 0.033208
v -1.374416 0.146652 -0.000000
v 1.400880 0.146652 -0.000000
v -1.374416 0.144276 -0.033208
v 1.400880 0.144276 -0.033208
v -1.374416 0.137239 -0.065140
v 1.400880 0.137239 -0.065140
v -1.374416 0.125812 -0.094568
v 1.400880 0.125811 -0.094568
v -1.374416 0.110433 -0.120363
v 1.400880 0.110433 -0.120363
v -1.374416 0.091694 -0.141531
v 1.400880 0.091694 -0.141531
v -1.374416 0.070315 -0.157261
v 1.400880 0.070315 -0.157261
v -1.374416 0.047117 -0.166947
v 1.400880 0.047117 -0.166947
vn -0.0000 -0.1343 -0.9909
vn -0.0000 -0.3853 -0.9228
vn -0.0000 -0.5926 -0.8055
vn -0.0000 -0.7488 -0.6628
vn -0.0000 -0.8589 -0.5121
vn -0.0000 -0.9322 -0.3620
vn -0.0000 -0.9766 -0.2152
vn -0.0000 -0.9974 -0.0714
vn -0.0000 -0.9975 0.0714
vn -0.0000 -0.9766 0.2152
vn -0.0000 -0.9322 0.3620
vn -0.0000 -0.8589 0.5121
vn -0.0000 -0.7488 0.6628
vn -0.0000 -0.5926 0.8055
vn -0.0000 -0.3853 0.9228
vn -0.0000 -0.1343 0.9909
vn 0.0000 0.1343 0.9909
vn 0.0000 0.3853 0.9228
vn 0.0000 0.5926 0.8055
vn 0.0000 0.7488 0.6628
vn 0.0000 0.8589 0.5121
vn 0.0000 0.9322 0.3620
vn 0.0000 0.9766 0.2152
vn 0.0000 0.9974 0.0714
vn 0.0000 0.9974 -0.0714
vn 0.0000 0.9766 -0.2152
vn 0.0000 0.9322 -0.3620
vn 0.0000 0.8589 -0.5121
vn 0.0000 0.7488 -0.6628
vn 0.0000 0.5926 -0.8055
vn 1.0000 -0.0000 0.0000
vn 0.0000 0.3853 -0.9228
vn 0.0000 0.1343 -0.9909
vn -1.0000 0.0000 0.0000
usemtl Material.001
s off
f 1//1 2//1 4//1 3//1
f 3//2 4//2 6//2 5//2
f 5//3 6//3 8//3 7//3
f 7//4 8//4 10//4 9//4
f 9//5 10//5 12//5 11//5
f 11//6 12//6 14//6 13//6
f 13//7 14//7 16//7 15//7
f 15//8 16//8 18//8 17//8
f 17//9 18//9 20//9 19//9
f 19//10 20//10 22//10 21//10
f 21//11 22//11 24//11 23//11
f 23//12 24//12 26//12 25//12
f 25//13 26//13 28//13 27//13
f 27//14 28//14 30//14 29//14
f 29//15 30//15 32//15 31//15
f 31//16 32//16 34//16 33//16
f 33//17 34//17 36//17 35//17
f 35//18 36//18 38//18 37//18
f 37//19 38//19 40//19 39//19
f 39//20 40//20 42//20 41//20
f 41//21 42//21 44//21 43//21
f 43//22 44//22 46//22 45//22
f 45//23 46//23 48//23 47//23
f 47//24 48//24 50//24 49//24
f 49//25 50//25 52//25 51//25
f 51//26 52//26 54//26 53//26
f 53//27 54//27 56//27 55//27
f 55//28 56//28 58//28 57//28
f 57//29 58//29 60//29 59//29
f 59//30 60//30 62//30 61//30
f 4//31 2//31 64//31 62//31 60//31 58//31 56//31 54//31 52//31 50//31 48//31 46//31 44//31 42//31 40//31 38//31 36//31 34//31 32//31 30//31 28//31 26//31 24//31 22//31 20//31 18//31 16//31 14//31 12//31 10//31 8//31 6//31
f 61//32 62//32 64//32 63//32
f 63//33 64//33 2//33 1//33
f 1//34 3//34 5//34 7//34 9//34 11//34 13//34 15//34 17//34 19//34 21//34 23//34 25//34 27//34 29//34 31//34 33//34 35//34 37//34 39//34 41//34 43//34 45//34 47//34 49//34 51//34 53//34 55//34 57//34 59//34 61//34 63//34
o Plane
v -1.328111 -0.130427 -0.000000
v 1.354575 -0.130427 -0.000000
v -1.328111 8.184666 0.000000
v 1.354575 8.184666 0.000000
vt 0.998001 0.000000
vt 0.000000 0.000000
vt 0.000000 0.999925
vt 1.000000 1.000000
vn 0.0000 -0.0000 1.0000
usemtl Material.002
s off
f 65/1/35 66/2/35 68/3/35 67/4/35
o Cylinder.001
v -1.393192 8.099840 -0.171489
v 1.386639 8.099840 -0.171489
v -1.393192 8.076037 -0.168194
v 1.386639 8.076037 -0.168194
v -1.393192 8.053149 -0.158435
v 1.386639 8.053149 -0.158435
v -1.393192 8.032056 -0.142588
v 1.386639 8.032056 -0.142588
v -1.393192 8.013567 -0.121261
v 1.386639 8.013567 -0.121261
v -1.393192 7.998394 -0.095274
v 1.386639 7.998394 -0.095274
v -1.393192 7.987119 -0.065626
v 1.386639 7.987119 -0.065626
v -1.393192 7.980175 -0.033456
v 1.386639 7.980175 -0.033456
v -1.393192 7.977831 -0.000000
v 1.386639 7.977831 -0.000000
v -1.393192 7.980175 0.033456
v 1.386639 7.980175 0.033456
v -1.393192 7.987119 0.065626
v 1.386639 7.987118 0.065626
v -1.393192 7.998394 0.095274
v 1.386639 7.998394 0.095274
v -1.393192 8.013567 0.121261
v 1.386639 8.013567 0.121261
v -1.393192 8.032056 0.142588
v 1.386639 8.032056 0.142588
v -1.393192 8.053149 0.158435
v 1.386639 8.053149 0.158435
v -1.393192 8.076037 0.168194
v 1.386639 8.076037 0.168194
v -1.393192 8.099840 0.171489
v 1.386639 8.099840 0.171489
v -1.393192 8.123643 0.168194
v 1.386639 8.123643 0.168194
v -1.393192 8.146531 0.158435
v 1.386639 8.146531 0.158435
v -1.393192 8.167624 0.142588
v 1.386639 8.167624 0.142588
v -1.393192 8.186113 0.121261
v 1.386639 8.186113 0.121261
v -1.393192 8.201287 0.095274
v 1.386639 8.201287 0.095274
v -1.393192 8.212562 0.065626
v 1.386639 8.212562 0.065626
v -1.393192 8.219505 0.033456
v 1.386639 8.219504 0.033456
v -1.393192 8.221849 -0.000000
v 1.386639 8.221849 -0.000000
v -1.393192 8.219505 -0.033456
v 1.386639 8.219504 -0.033456
v -1.393192 8.212562 -0.065626
v 1.386639 8.212562 -0.065626
v -1.393192 8.201287 -0.095275
v 1.386639 8.201287 -0.095275
v -1.393192 8.186113 -0.121261
v 1.386639 8.186113 -0.121261
v -1.393192 8.167624 -0.142588
v 1.386639 8.167624 -0.142588
v -1.393192 8.146531 -0.158436
v 1.386639 8.146531 -0.158436
v -1.393192 8.123643 -0.168194
v 1.386639 8.123643 -0.168194
vn 0.0000 -0.1371 -0.9906
vn 0.0000 -0.3922 -0.9199
vn 0.0000 -0.6007 -0.7995
vn 0.0000 -0.7556 -0.6550
vn 0.0000 -0.8636 -0.5042
vn 0.0000 -0.9347 -0.3555
vn 0.0000 -0.9775 -0.2110
vn -0.0000 -0.9976 -0.0699
vn -0.0000 -0.9976 0.0699
vn -0.0000 -0.9775 0.2110
vn -0.0000 -0.9347 0.3555
vn 0.0000 -0.8636 0.5042
vn 0.0000 -0.7556 0.6550
vn 0.0000 -0.6007 0.7995
vn 0.0000 -0.3922 0.9199
vn 0.0000 -0.1371 0.9906
vn 0.0000 0.1371 0.9906
vn 0.0000 0.3922 0.9199
vn 0.0000 0.6007 0.7995
vn 0.0000 0.7556 0.6551
vn 0.0000 0.8636 0.5042
vn 0.0000 0.9347 0.3554
vn 0.0000 0.9775 0.2110
vn 0.0000 0.9976 0.0699
vn 0.0000 0.9976 -0.0699
vn 0.0000 0.9775 -0.2110
vn 0.0000 0.9347 -0.3554
vn 0.0000 0.8636 -0.5042
vn 0.0000 0.7556 -0.6551
vn 0.0000 0.6007 -0.7995
vn 1.0000 -0.0000 0.0000
vn 0.0000 0.3922 -0.9199
vn 0.0000 0.1371 -0.9906
vn -1.0000 0.0000 0.0000
usemtl None
s off
f 69//36 70//36 72//36 71//36
f 71//37 72//37 74//37 73//37
f 73//38 74//38 76//38 75//38
f 75//39 76//39 78//39 77//39
f 77//40 78//40 80//40 79//40
f 79//41 80//41 82//41 81//41
f 81//42 82//42 84//42 83//42
f 83//43 84//43 86//43 85//43
f 85//44 86//44 88//44 87//44
f 87//45 88//45 90//45 89//45
f 89//46 90//46 92//46 91//46
f 91//47 92//47 94//47 93//47
f 93//48 94//48 96//48 95//48
f 95//49 96//49 98//49 97//49
f 97//50 98//50 100//50 99//50
f 99//51 100//51 102//51 101//51
f 101//52 102//52 104//52 103//52
f 103//53 104//53 106//53 105//53
f 105//54 106//54 108//54 107//54
f 107//55 108//55 110//55 109//55
f 109//56 110//56 112//56 111//56
f 111//57 112//57 114//57 113//57
f 113//58 114//58 116//58 115//58
f 115//59 116//59 118//59 117//59
f 117//60 118//60 120//60 119//60
f 119//61 120//61 122//61 121//61
f 121//62 122//62 124//62 123//62
f 123//63 124//63 126//63 125//63
f 125//64 126//64 128//64 127//64
f 127//65 128//65 130//65 129//65
f 72//66 70//66 132//66 130//66 128//66 126//66 124//66 122//66 120//66 118//66 116//66 114//66 112//66 110//66 108//66 106//66 104//66 102//66 100//66 98//66 96//66 94//66 92//66 90//66 88//66 86//66 84//66 82//66 80//66 78//66 76//66 74//66
f 129//67 130//67 132//67 131//67
f 131//68 132//68 70//68 69//68
f 69//69 71//69 73//69 75//69 77//69 79//69 81//69 83//69 85//69 87//69 89//69 91//69 93//69 95//69 97//69 99//69 101//69 103//69 105//69 107//69 109//69 111//69 113//69 115//69 117//69 119//69 121//69 123//69 125//69 127//69 129//69 131//69
o Cylinder.002
v 1.320600 8.159591 -0.050985
v 1.318680 0.087653 -0.050985
v 1.304889 8.159595 -0.050005
v 1.302970 0.087657 -0.050005
v 1.289782 8.159597 -0.047104
v 1.287863 0.087660 -0.047104
v 1.275860 8.159601 -0.042393
v 1.273941 0.087664 -0.042393
v 1.263657 8.159604 -0.036052
v 1.261737 0.087667 -0.036052
v 1.253642 8.159607 -0.028326
v 1.251723 0.087669 -0.028326
v 1.246200 8.159609 -0.019511
v 1.244281 0.087671 -0.019511
v 1.241618 8.159609 -0.009947
v 1.239698 0.087672 -0.009947
v 1.240070 8.159610 -0.000000
v 1.238151 0.087672 -0.000000
v 1.241618 8.159609 0.009947
v 1.239698 0.087672 0.009947
v 1.246200 8.159609 0.019511
v 1.244281 0.087671 0.019511
v 1.253642 8.159607 0.028326
v 1.251723 0.087669 0.028326
v 1.263657 8.159604 0.036052
v 1.261737 0.087667 0.036052
v 1.275860 8.159601 0.042393
v 1.273941 0.087664 0.042393
v 1.289782 8.159597 0.047104
v 1.287863 0.087660 0.047104
v 1.304889 8.159595 0.050005
v 1.302970 0.087657 0.050005
v 1.320600 8.159591 0.050985
v 1.318680 0.087653 0.050985
v 1.336310 8.159587 0.050005
v 1.334391 0.087649 0.050005
v 1.351417 8.159584 0.047104
v 1.349497 0.087646 0.047104
v 1.365339 8.159580 0.042393
v 1.363420 0.087643 0.042393
v 1.377542 8.159577 0.036052
v 1.375623 0.087640 0.036052
v 1.387557 8.159575 0.028326
v 1.385638 0.087637 0.028326
v 1.394999 8.159573 0.019511
v 1.393079 0.087636 0.019511
v 1.399581 8.159573 0.009947
v 1.397662 0.087635 0.009947
v 1.401129 8.159572 -0.000000
v 1.399209 0.087634 -0.000000
v 1.399581 8.159573 -0.009947
v 1.397662 0.087635 -0.009947
v 1.394999 8.159573 -0.019511
v 1.393079 0.087636 -0.019511
v 1.387557 8.159575 -0.028326
v 1.385638 0.087637 -0.028326
v 1.377542 8.159577 -0.036052
v 1.375623 0.087640 -0.036052
v 1.365339 8.159580 -0.042393
v 1.363420 0.087643 -0.042393
v 1.351417 8.159584 -0.047104
v 1.349497 0.087646 -0.047104
v 1.336310 8.159587 -0.050005
v 1.334390 0.087649 -0.050005
vn -0.0622 0.0000 -0.9981
vn -0.1886 0.0000 -0.9821
vn -0.3206 0.0001 -0.9472
vn -0.4611 0.0001 -0.8874
vn -0.6108 0.0001 -0.7918
vn -0.7641 0.0002 -0.6451
vn -0.9018 0.0002 -0.4321
vn -0.9881 0.0002 -0.1537
vn -0.9881 0.0002 0.1537
vn -0.9018 0.0002 0.4321
vn -0.7641 0.0002 0.6451
vn -0.6108 0.0001 0.7918
vn -0.4611 0.0001 0.8874
vn -0.3206 0.0001 0.9472
vn -0.1886 0.0000 0.9821
vn -0.0622 0.0000 0.9981
vn 0.0622 -0.0000 0.9981
vn 0.1886 -0.0000 0.9821
vn 0.3206 -0.0001 0.9472
vn 0.4611 -0.0001 0.8874
vn 0.6108 -0.0001 0.7918
vn 0.7641 -0.0002 0.6451
vn 0.9018 -0.0002 0.4321
vn 0.9881 -0.0002 0.1537
vn 0.9881 -0.0002 -0.1537
vn 0.9018 -0.0002 -0.4321
vn 0.7641 -0.0002 -0.6451
vn 0.6108 -0.0001 -0.7918
vn 0.4611 -0.0001 -0.8874
vn 0.3206 -0.0001 -0.9472
vn -0.0002 -1.0000 0.0000
vn 0.1886 -0.0000 -0.9821
vn 0.0622 -0.0000 -0.9981
vn 0.0002 1.0000 0.0000
usemtl None
s off
f 133//70 134//70 136//70 135//70
f 135//71 136//71 138//71 137//71
f 137//72 138//72 140//72 139//72
f 139//73 140//73 142//73 141//73
f 141//74 142//74 144//74 143//74
f 143//75 144//75 146//75 145//75
f 145//76 146//76 148//76 147//76
f 147//77 148//77 150//77 149//77
f 149//78 150//78 152//78 151//78
f 151//79 152//79 154//79 153//79
f 153//80 154//80 156//80 155//80
f 155//81 156//81 158//81 157//81
f 157//82 158//82 160//82 159//82
f 159//83 160//83 162//83 161//83
f 161//84 162//84 164//84 163//84
f 163//85 164//85 166//85 165//85
f 165//86 166//86 168//86 167//86
f 167//87 168//87 170//87 169//87
f 169//88 170//88 172//88 171//88
f 171//89 172//89 174//89 173//89
f 173//90 174//90 176//90 175//90
f 175//91 176//91 178//91 177//91
f 177//92 178//92 180//92 179//92
f 179//93 180//93 182//93 181//93
f 181//94 182//94 184//94 183//94
f 183//95 184//95 186//95 185//95
f 185//96 186//96 188//96 187//96
f 187//97 188//97 190//97 189//97
f 189//98 190//98 192//98 191//98
f 191//99 192//99 194//99 193//99
f 136//100 134//100 196//100 194//100 192//100 190//100 188//100 186//100 184//100 182//100 180//100 178//100 176//100 174//100 172//100 170//100 168//100 166//100 164//100 162//100 160//100 158//100 156//100 154//100 152//100 150//100 148//100 146//100 144//100 142//100 140//100 138//100
f 193//101 194//101 196//101 195//101
f 195//102 196//102 134//102 133//102
f 133//103 135//103 137//103 139//103 141//103 143//103 145//103 147//103 149//103 151//103 153//103 155//103 157//103 159//103 161//103 163//103 165//103 167//103 169//103 171//103 173//103 175//103 177//103 179//103 181//103 183//103 185//103 187//103 189//103 191//103 193//103 195//103
o Cylinder.003
v -1.379158 8.124011 -0.050652
v -1.262924 0.087935 -0.050652
v -1.389881 8.123856 -0.049679
v -1.273646 0.087780 -0.049679
v -1.400191 8.123707 -0.046796
v -1.283956 0.087631 -0.046796
v -1.409693 8.123569 -0.042116
v -1.293458 0.087494 -0.042116
v -1.418021 8.123449 -0.035816
v -1.301786 0.087373 -0.035816
v -1.424856 8.123350 -0.028141
v -1.308621 0.087275 -0.028141
v -1.429935 8.123277 -0.019384
v -1.313700 0.087201 -0.019384
v -1.433063 8.123232 -0.009882
v -1.316828 0.087156 -0.009882
v -1.434119 8.123217 -0.000000
v -1.317884 0.087141 -0.000000
v -1.433063 8.123232 0.009882
v -1.316828 0.087156 0.009882
v -1.429935 8.123277 0.019384
v -1.313700 0.087201 0.019384
v -1.424856 8.123350 0.028141
v -1.308621 0.087275 0.028141
v -1.418021 8.123449 0.035816
v -1.301786 0.087373 0.035816
v -1.409693 8.123569 0.042116
v -1.293458 0.087494 0.042116
v -1.400191 8.123707 0.046796
v -1.283956 0.087631 0.046796
v -1.389881 8.123856 0.049679
v -1.273646 0.087780 0.049679
v -1.379158 8.124011 0.050652
v -1.262924 0.087935 0.050652
v -1.368436 8.124166 0.049679
v -1.252201 0.088090 0.049679
v -1.358126 8.124315 0.046796
v -1.241891 0.088240 0.046796
v -1.348624 8.124453 0.042116
v -1.232389 0.088377 0.042116
v -1.340296 8.124573 0.035816
v -1.224061 0.088498 0.035816
v -1.333460 8.124672 0.028141
v -1.217226 0.088596 0.028141
v -1.328382 8.124745 0.019384
v -1.212147 0.088670 0.019384
v -1.325254 8.124790 0.009882
v -1.209019 0.088715 0.009882
v -1.324198 8.124805 -0.000000
v -1.207963 0.088730 -0.000000
v -1.325254 8.124790 -0.009882
v -1.209019 0.088715 -0.009882
v -1.328382 8.124745 -0.019384
v -1.212147 0.088670 -0.019384
v -1.333461 8.124672 -0.028141
v -1.217226 0.088596 -0.028141
v -1.340296 8.124573 -0.035817
v -1.224061 0.088498 -0.035817
v -1.348624 8.124453 -0.042116
v -1.232389 0.088377 -0.042116
v -1.358126 8.124315 -0.046797
v -1.241891 0.088240 -0.046797
v -1.368436 8.124166 -0.049679
v -1.252202 0.088090 -0.049679
vn -0.0904 -0.0013 -0.9959
vn -0.2692 -0.0039 -0.9631
vn -0.4418 -0.0064 -0.8971
vn -0.6031 -0.0087 -0.7976
vn -0.7467 -0.0108 -0.6651
vn -0.8649 -0.0125 -0.5017
vn -0.9498 -0.0137 -0.3127
vn -0.9942 -0.0144 -0.1063
vn -0.9942 -0.0144 0.1063
vn -0.9498 -0.0137 0.3127
vn -0.8649 -0.0125 0.5017
vn -0.7467 -0.0108 0.6651
vn -0.6031 -0.0087 0.7976
vn -0.4418 -0.0064 0.8971
vn -0.2692 -0.0039 0.9631
vn -0.0904 -0.0013 0.9959
vn 0.0904 0.0013 0.9959
vn 0.2692 0.0039 0.9631
vn 0.4418 0.0064 0.8971
vn 0.6031 0.0087 0.7976
vn 0.7467 0.0108 0.6651
vn 0.8649 0.0125 0.5017
vn 0.9498 0.0137 0.3127
vn 0.9942 0.0144 0.1063
vn 0.9942 0.0144 -0.1063
vn 0.9498 0.0137 -0.3127
vn 0.8649 0.0125 -0.5017
vn 0.7467 0.0108 -0.6651
vn 0.6031 0.0087 -0.7976
vn 0.4418 0.0064 -0.8971
vn 0.0145 -0.9999 0.0000
vn 0.2692 0.0039 -0.9631
vn 0.0904 0.0013 -0.9959
vn -0.0145 0.9999 0.0000
usemtl None
s off
f 197//104 198//104 200//104 199//104
f 199//105 200//105 202//105 201//105
f 201//106 202//106 204//106 203//106
f 203//107 204//107 206//107 205//107
f 205//108 206//108 208//108 207//108
f 207//109 208//109 210//109 209//109
f 209//110 210//110 212//110 211//110
f 211//111 212//111 214//111 213//111
f 213//112 214//112 216//112 215//112
f 215//113 216//113 218//113 217//113
f 217//114 218//114 220//114 219//114
f 219//115 220//115 222//115 221//115
f 221//116 222//116 224//116 223//116
f 223//117 224//117 226//117 225//117
f 225//118 226//118 228//118 227//118
f 227//119 228//119 230//119 229//119
f 229//120 230//120 232//120 231//120
f 231//121 232//121 234//121 233//121
f 233//122 234//122 236//122 235//122
f 235//123 236//123 238//123 237//123
f 237//124 238//124 240//124 239//124
f 239//125 240//125 242//125 241//125
f 241//126 242//126 244//126 243//126
f 243//127 244//127 246//127 245//127
f 245//128 246//128 248//128 247//128
f 247//129 248//129 250//129 249//129
f 249//130 250//130 252//130 251//130
f 251//131 252//131 254//131 253//131
f 253//132 254//132 256//132 255//132
f 255//133 256//133 258//133 257//133
f 200//134 198//134 260//134 258//134 256//134 254//134 252//134 250//134 248//134 246//134 244//134 242//134 240//134 238//134 236//134 234//134 232//134 230//134 228//134 226//134 224//134 222//134 220//134 218//134 216//134 214//134 212//134 210//134 208//134 206//134 204//134 202//134
f 257//135 258//135 260//135 259//135
f 259//136 260//136 198//136 197//136
f 197//137 199//137 201//137 203//137 205//137 207//137 209//137 211//137 213//137 215//137 217//137 219//137 221//137 223//137 225//137 227//137 229//137 231//137 233//137 235//137 237//137 239//137 241//137 243//137 245//137 247//137 249//137 251//137 253//137 255//137 257//137 259//137
