# Blender v2.79 (sub 0) OBJ File: 'Stein2.blend'
# www.blender.org
mtllib Stein2.mtl
o Sphere
v -0.219040 1.513885 -0.459851
v -0.182958 0.245908 -1.146262
v 0.806647 -0.129263 -0.639023
v 0.413204 1.456435 -0.346796
v 0.875814 0.234622 -0.786374
v 1.026075 -0.274086 0.407234
v -0.059760 -0.580897 -0.396414
v 1.026773 1.366884 0.548907
v 1.235431 0.768732 0.746449
v 0.392057 0.715383 1.496024
v 0.669099 0.197281 1.378315
v -0.044382 1.878553 0.017193
v 0.080748 1.977991 0.455296
v -1.119671 0.443227 1.234993
v 0.114017 -0.444135 0.981202
v -0.454990 -0.068208 1.326381
v -0.118853 1.767550 1.149283
v -1.065269 1.266594 0.867464
v -1.366835 0.144340 0.543219
v -0.798611 -0.497884 0.304545
v -1.112581 1.315534 0.267456
v -0.422707 1.880824 0.326678
v -1.038194 0.228512 -0.712313
v -0.847653 -0.148255 -0.735790
vn 0.1966 0.4711 -0.8599
vn 0.2902 -0.4061 -0.8665
vn 0.7550 0.4555 -0.4716
vn 0.9280 0.2258 -0.2964
vn 0.9336 -0.2720 -0.2334
vn 0.9740 -0.1367 -0.1809
vn -0.5645 0.7928 0.2297
vn 0.8305 -0.3159 0.4587
vn 0.2242 -0.9722 0.0682
vn 0.5841 0.4309 0.6879
vn 0.4608 -0.7200 0.5189
vn 0.0065 -0.2183 0.9759
vn 0.1011 -0.5855 0.8043
vn -0.2037 0.2158 0.9550
vn -0.2849 -0.8456 0.4514
vn -0.1418 0.9733 -0.1804
vn -0.2384 0.9463 0.2184
vn -0.0161 -0.9948 0.1008
vn -0.9679 0.2326 0.0953
vn -0.9484 0.1793 0.2614
vn -0.7686 -0.6165 -0.1710
vn -0.9587 0.1514 -0.2408
vn -0.4167 0.4236 -0.8043
vn 0.2960 0.4206 -0.8576
vn 0.1821 0.7479 -0.6384
vn 0.1330 -0.6549 -0.7439
vn 0.4895 0.8097 -0.3236
vn 0.4056 -0.8900 -0.2083
vn 0.5393 0.7904 -0.2904
vn 0.6474 0.1778 0.7411
vn 0.4758 0.7944 0.3777
vn 0.5329 0.4869 0.6921
vn -0.1637 -0.0365 0.9858
vn -0.4460 0.3892 0.8060
vn -0.5770 -0.6653 0.4738
vn -0.5551 -0.6729 0.4890
vn -0.8690 -0.4235 -0.2559
vn -0.5362 0.7032 -0.4669
vn -0.6088 0.5077 -0.6095
vn -0.3797 0.7968 -0.4700
vn -0.4432 -0.1693 -0.8803
vn -0.3662 -0.8871 -0.2809
vn -0.0539 -0.6752 -0.7357
usemtl Material
s off
f 1//1 4//1 2//1
f 2//2 5//2 3//2
f 4//3 8//3 5//3
f 8//4 9//4 5//4
f 5//5 6//5 3//5
f 9//6 6//6 5//6
f 22//7 21//7 18//7 17//7
f 9//8 11//8 6//8
f 6//9 15//9 7//9
f 8//10 10//10 9//10
f 11//11 15//11 6//11
f 11//12 10//12 16//12
f 11//13 16//13 15//13
f 10//14 17//14 14//14
f 16//15 20//15 15//15
f 13//16 12//16 22//16
f 13//17 22//17 17//17
f 7//18 15//18 20//18
f 18//19 21//19 19//19
f 18//20 19//20 14//20
f 20//21 19//21 24//21
f 19//22 21//22 23//22
f 1//23 2//23 23//23
f 2//24 4//24 5//24
f 1//25 12//25 4//25
f 2//26 3//26 7//26
f 12//27 13//27 4//27
f 3//28 6//28 7//28
f 8//29 4//29 13//29
f 9//30 10//30 11//30
f 8//31 13//31 17//31
f 8//32 17//32 10//32
f 10//33 14//33 16//33
f 14//34 17//34 18//34
f 16//35 14//35 20//35
f 20//36 14//36 19//36
f 19//37 23//37 24//37
f 21//38 22//38 1//38
f 23//39 21//39 1//39
f 1//40 22//40 12//40
f 24//41 23//41 2//41
f 24//42 7//42 20//42
f 24//43 2//43 7//43
