# Blender v2.79 (sub 0) OBJ File: 'Anvil.blend'
# www.blender.org
mtllib Anvil.mtl
o Plane
v -1.000000 0.000000 1.000000
v 1.000000 0.000000 1.000000
v -1.000000 0.000000 -1.000000
v 1.000000 0.000000 -1.000000
v -1.000000 0.000000 1.000000
v 1.000000 0.000000 1.000000
v -1.000000 0.000000 -1.000000
v 1.000000 0.000000 -1.000000
v -0.935476 0.331225 0.935476
v 0.935476 0.331225 0.935476
v -0.935476 0.331225 -0.935476
v 0.935476 0.331225 -0.935476
v -0.935476 0.331225 0.935476
v 0.935476 0.331225 0.935476
v -0.935476 0.331225 -0.935476
v 0.935476 0.331225 -0.935476
v -0.410167 2.316854 0.410167
v 0.410167 2.316854 0.410167
v -0.410167 2.316854 -0.410167
v 0.410167 2.316854 -0.410167
v 0.825796 0.483966 0.825796
v 0.727661 0.636707 0.727661
v 0.641072 0.789448 0.641072
v 0.566028 0.942188 0.566028
v 0.502529 1.094929 0.502529
v 0.450575 1.247670 0.450575
v 0.410167 1.400410 0.410167
v 0.381304 1.553151 0.381304
v 0.363986 1.705892 0.363986
v 0.358213 1.858632 0.358213
v 0.363986 2.011373 0.363986
v 0.381304 2.164114 0.381304
v -0.381304 2.164114 0.381304
v -0.363986 2.011373 0.363986
v -0.358213 1.858632 0.358213
v -0.363986 1.705891 0.363986
v -0.381304 1.553151 0.381304
v -0.410167 1.400410 0.410167
v -0.450575 1.247669 0.450575
v -0.502529 1.094929 0.502529
v -0.566028 0.942188 0.566028
v -0.641072 0.789447 0.641072
v -0.727661 0.636707 0.727661
v -0.825796 0.483966 0.825796
v 0.825796 0.483966 -0.825796
v 0.727661 0.636707 -0.727661
v 0.641072 0.789448 -0.641072
v 0.566028 0.942188 -0.566028
v 0.502529 1.094929 -0.502529
v 0.450575 1.247670 -0.450575
v 0.410167 1.400410 -0.410167
v 0.381304 1.553151 -0.381304
v 0.363986 1.705892 -0.363986
v 0.358213 1.858632 -0.358213
v 0.363986 2.011373 -0.363986
v 0.381304 2.164114 -0.381304
v -0.381304 2.164114 -0.381304
v -0.363986 2.011373 -0.363986
v -0.358213 1.858632 -0.358213
v -0.363986 1.705891 -0.363986
v -0.381304 1.553151 -0.381304
v -0.410167 1.400410 -0.410167
v -0.450575 1.247669 -0.450575
v -0.502529 1.094929 -0.502529
v -0.566028 0.942188 -0.566028
v -0.641072 0.789447 -0.641072
v -0.727661 0.636707 -0.727661
v -0.825796 0.483966 -0.825796
v -0.410167 3.290762 -0.410167
v -0.410167 3.290762 0.410167
v 0.410167 3.290762 0.410167
v 0.410167 3.290762 -0.410167
v -0.410167 3.290762 -0.410167
v -0.410167 3.290762 0.410167
v 0.410167 3.290762 0.410167
v 0.410167 3.290762 -0.410167
v -0.410167 2.522821 1.333318
v 0.410167 2.522821 1.333318
v -0.410167 3.290762 1.333318
v 0.410167 3.290762 1.333318
v 0.410167 2.474515 0.871743
v -0.410167 2.474515 0.871743
v -0.410167 3.290762 0.871743
v 0.410167 3.290762 0.871743
v 0.410167 2.316854 -0.410167
v -0.410167 2.316854 -0.410167
v 0.410167 3.290762 -0.410167
v -0.410167 3.290762 -0.410167
v 0.410167 2.316854 -0.410167
v -0.410167 2.316854 -0.410167
v 0.410167 3.290762 -0.410167
v -0.410167 3.290762 -0.410167
v 0.410167 2.316854 -0.410167
v -0.410167 2.316854 -0.410167
v 0.410167 3.290762 -0.410167
v -0.410167 3.290762 -0.410167
v 0.410167 3.026821 -2.410167
v -0.410167 3.026821 -2.410167
v 0.410167 3.290762 -2.410167
v -0.410167 3.290762 -2.410167
v -0.410167 3.290762 -0.743500
v -0.410167 3.290762 -1.076834
v -0.410167 3.290762 -1.410167
v -0.410167 3.290762 -1.743500
v -0.410167 3.290762 -2.076834
v -0.410167 3.006042 -2.076834
v -0.410167 2.943630 -1.743500
v -0.410167 2.839365 -1.410167
v -0.410167 2.692874 -1.076834
v -0.410167 2.503640 -0.743500
v 0.410167 3.290762 -0.743500
v 0.410167 3.290762 -1.076834
v 0.410167 3.290762 -1.410167
v 0.410167 3.290762 -1.743500
v 0.410167 3.290762 -2.076834
v 0.410167 2.503640 -0.743500
v 0.410167 2.692874 -1.076834
v 0.410167 2.839365 -1.410167
v 0.410167 2.943630 -1.743500
v 0.410167 3.006042 -2.076834
vn 0.0000 -1.0000 0.0000
vn 0.9815 0.1912 0.0000
vn 0.0000 0.0000 1.0000
vn -0.9815 0.1912 0.0000
vn -0.0000 0.1912 -0.9815
vn -0.0000 0.1912 0.9815
vn 0.0000 -0.1857 0.9826
vn 0.0000 -0.9946 0.1041
vn 0.9826 -0.1857 0.0000
vn -0.9826 -0.1857 0.0000
vn 0.0000 -0.1857 -0.9826
vn -0.0000 0.5833 -0.8123
vn -0.0000 0.5405 -0.8413
vn -0.0000 0.4932 -0.8699
vn -0.0000 0.4410 -0.8975
vn -0.0000 0.3839 -0.9234
vn -0.0000 0.3220 -0.9467
vn -0.0000 0.2558 -0.9667
vn -0.0000 0.1857 -0.9826
vn -0.0000 0.1127 -0.9936
vn -0.0000 0.0378 -0.9993
vn 0.0000 -0.0378 -0.9993
vn 0.0000 -0.1127 -0.9936
vn -0.8123 0.5833 0.0000
vn -0.8413 0.5405 0.0000
vn -0.8699 0.4932 0.0000
vn -0.8975 0.4410 0.0000
vn -0.9234 0.3839 0.0000
vn -0.9467 0.3220 0.0000
vn -0.9667 0.2558 0.0000
vn -0.9826 0.1857 0.0000
vn -0.9936 0.1127 0.0000
vn -0.9993 0.0378 0.0000
vn -0.9993 -0.0378 0.0000
vn -0.9936 -0.1127 0.0000
vn 0.8123 0.5833 0.0000
vn 0.8413 0.5405 0.0000
vn 0.8699 0.4932 0.0000
vn 0.8975 0.4410 0.0000
vn 0.9234 0.3839 0.0000
vn 0.9467 0.3220 0.0000
vn 0.9667 0.2558 0.0000
vn 0.9826 0.1857 0.0000
vn 0.9936 0.1127 0.0000
vn 0.9993 0.0378 0.0000
vn 0.9993 -0.0378 0.0000
vn 0.9936 -0.1127 0.0000
vn -0.0000 0.5833 0.8123
vn -0.0000 0.5405 0.8413
vn -0.0000 0.4932 0.8699
vn -0.0000 0.4410 0.8975
vn -0.0000 0.3839 0.9234
vn -0.0000 0.3220 0.9467
vn -0.0000 0.2558 0.9667
vn -0.0000 0.1857 0.9826
vn -0.0000 0.1127 0.9936
vn -0.0000 0.0378 0.9993
vn 0.0000 -0.0378 0.9993
vn 0.0000 -0.1127 0.9936
vn 1.0000 0.0000 0.0000
vn -1.0000 0.0000 0.0000
vn 0.0000 1.0000 0.0000
vn 0.0000 -0.9463 0.3232
vn 0.0000 0.0000 -1.0000
vn 0.0000 -0.9981 -0.0622
vn 0.0000 -0.8724 -0.4888
vn 0.0000 -0.8696 -0.4937
vn 0.0000 -0.9155 -0.4023
vn 0.0000 -0.9544 -0.2985
vn 0.0000 -0.9829 -0.1840
usemtl None
s off
f 1//1 3//1 4//1 2//1
f 6//2 8//2 12//2 10//2
f 2//3 4//3 8//3 6//3
f 3//3 1//3 5//3 7//3
f 4//3 3//3 7//3 8//3
f 1//3 2//3 6//3 5//3
f 12//3 11//3 15//3 16//3
f 7//4 5//4 9//4 11//4
f 8//5 7//5 11//5 12//5
f 5//6 6//6 10//6 9//6
f 33//7 32//7 18//7 17//7
f 9//3 10//3 14//3 13//3
f 10//3 12//3 16//3 14//3
f 11//3 9//3 13//3 15//3
f 82//8 81//8 78//8 77//8
f 32//9 56//9 20//9 18//9
f 57//10 33//10 17//10 19//10
f 56//11 57//11 19//11 20//11
f 16//12 15//12 68//12 45//12
f 45//13 68//13 67//13 46//13
f 46//14 67//14 66//14 47//14
f 47//15 66//15 65//15 48//15
f 48//16 65//16 64//16 49//16
f 49//17 64//17 63//17 50//17
f 50//18 63//18 62//18 51//18
f 51//19 62//19 61//19 52//19
f 52//20 61//20 60//20 53//20
f 53//21 60//21 59//21 54//21
f 54//22 59//22 58//22 55//22
f 55//23 58//23 57//23 56//23
f 15//24 13//24 44//24 68//24
f 68//25 44//25 43//25 67//25
f 67//26 43//26 42//26 66//26
f 66//27 42//27 41//27 65//27
f 65//28 41//28 40//28 64//28
f 64//29 40//29 39//29 63//29
f 63//30 39//30 38//30 62//30
f 62//31 38//31 37//31 61//31
f 61//32 37//32 36//32 60//32
f 60//33 36//33 35//33 59//33
f 59//34 35//34 34//34 58//34
f 58//35 34//35 33//35 57//35
f 14//36 16//36 45//36 21//36
f 21//37 45//37 46//37 22//37
f 22//38 46//38 47//38 23//38
f 23//39 47//39 48//39 24//39
f 24//40 48//40 49//40 25//40
f 25//41 49//41 50//41 26//41
f 26//42 50//42 51//42 27//42
f 27//43 51//43 52//43 28//43
f 28//44 52//44 53//44 29//44
f 29//45 53//45 54//45 30//45
f 30//46 54//46 55//46 31//46
f 31//47 55//47 56//47 32//47
f 13//48 14//48 21//48 44//48
f 44//49 21//49 22//49 43//49
f 43//50 22//50 23//50 42//50
f 42//51 23//51 24//51 41//51
f 41//52 24//52 25//52 40//52
f 40//53 25//53 26//53 39//53
f 39//54 26//54 27//54 38//54
f 38//55 27//55 28//55 37//55
f 37//56 28//56 29//56 36//56
f 36//57 29//57 30//57 35//57
f 35//58 30//58 31//58 34//58
f 34//59 31//59 32//59 33//59
f 72//3 69//3 73//3 76//3
f 18//60 20//60 72//60 71//60
f 19//61 17//61 70//61 69//61
f 19//3 69//3 88//3 86//3
f 74//62 75//62 76//62 73//62
f 70//3 71//3 75//3 74//3
f 71//3 72//3 76//3 75//3
f 69//3 70//3 74//3 73//3
f 77//3 78//3 80//3 79//3
f 83//61 82//61 77//61 79//61
f 84//62 83//62 79//62 80//62
f 81//60 84//60 80//60 78//60
f 18//60 71//60 84//60 81//60
f 71//62 70//62 83//62 84//62
f 70//61 17//61 82//61 83//61
f 17//63 18//63 81//63 82//63
f 87//3 85//3 89//3 91//3
f 69//3 72//3 87//3 88//3
f 72//3 20//3 85//3 87//3
f 20//3 19//3 86//3 85//3
f 89//3 90//3 94//3 93//3
f 85//3 86//3 90//3 89//3
f 86//3 88//3 92//3 90//3
f 88//3 87//3 91//3 92//3
f 106//61 105//61 100//61 98//61
f 90//3 92//3 96//3 94//3
f 92//3 91//3 95//3 96//3
f 91//3 89//3 93//3 95//3
f 97//64 98//64 100//64 99//64
f 105//62 115//62 99//62 100//62
f 115//60 120//60 97//60 99//60
f 120//65 106//65 98//65 97//65
f 93//66 94//66 110//66 116//66
f 116//67 110//67 109//67 117//67
f 117//68 109//68 108//68 118//68
f 118//69 108//69 107//69 119//69
f 119//70 107//70 106//70 120//70
f 95//60 93//60 116//60 111//60
f 111//60 116//60 117//60 112//60
f 112//60 117//60 118//60 113//60
f 113//60 118//60 119//60 114//60
f 114//60 119//60 120//60 115//60
f 96//62 95//62 111//62 101//62
f 101//62 111//62 112//62 102//62
f 102//62 112//62 113//62 103//62
f 103//62 113//62 114//62 104//62
f 104//62 114//62 115//62 105//62
f 94//61 96//61 101//61 110//61
f 110//61 101//61 102//61 109//61
f 109//61 102//61 103//61 108//61
f 108//61 103//61 104//61 107//61
f 107//61 104//61 105//61 106//61
