# Blender v2.79 (sub 0) OBJ File: 'BANK.blend'
# www.blender.org
mtllib BANK.mtl
o Cube
v 1.000000 1.293160 -3.045610
v 1.000000 1.293160 3.045610
v -1.000000 1.293160 3.045610
v -1.000000 1.293160 -3.045611
v 1.000000 1.798752 -2.852379
v 0.999999 1.835377 2.742892
v -1.000000 1.835377 2.808945
v -1.000000 1.835377 -2.930920
v -1.000000 -0.004226 -1.612980
v -0.795316 1.564467 -1.612980
v -1.000000 -0.004226 -2.387020
v -0.795316 1.564467 -2.387020
v 1.000000 -0.004226 -1.612980
v 0.876346 1.564467 -1.612980
v 1.000000 -0.004226 -2.387020
v 0.876346 1.564467 -2.387020
v -0.589478 1.472321 -2.291124
v -1.000000 -0.004226 2.387020
v -0.795316 1.564467 2.387020
v -1.000000 -0.004226 1.612980
v -0.795316 1.564467 1.612980
v 1.000000 -0.004226 2.387020
v 0.876346 1.564467 2.387020
v 1.000000 -0.004226 1.612980
v 0.876346 1.564467 1.612980
v -0.589478 1.472321 1.708876
vn 0.0000 -1.0000 -0.0000
vn 0.0092 1.0000 -0.0032
vn 1.0000 -0.0000 0.0000
vn 0.0148 0.4453 0.8953
vn -1.0000 -0.0000 -0.0000
vn 0.0214 0.2819 -0.9592
vn -0.9916 0.1294 0.0000
vn 0.0000 0.0000 -1.0000
vn 0.9969 0.0786 0.0000
vn 0.0000 0.0000 1.0000
vn 0.0000 1.0000 0.0000
usemtl Material
s off
f 1//1 2//1 3//1 4//1
f 5//2 8//2 7//2 6//2
f 1//3 5//3 6//3 2//3
f 2//4 6//4 7//4 3//4
f 3//5 7//5 8//5 4//5
f 5//6 1//6 4//6 8//6
usemtl Material.001
f 9//7 10//7 12//7 11//7
f 11//8 12//8 16//8 15//8
f 15//9 16//9 14//9 13//9
f 13//10 14//10 10//10 9//10
f 11//1 15//1 13//1 9//1
f 16//11 12//11 10//11 14//11
usemtl Material.002
f 18//7 19//7 21//7 20//7
f 20//8 21//8 25//8 24//8
f 24//9 25//9 23//9 22//9
f 22//10 23//10 19//10 18//10
f 20//1 24//1 22//1 18//1
f 25//11 21//11 19//11 23//11
l 10 17
l 19 26
